<svg width="21" height="21" viewBox="0 0 21 21" fill="none" xmlns="http://www.w3.org/2000/svg">
<path d="M10.3333 12.6667C15.856 12.6667 20.3333 14.756 20.3333 17.3333V20.6667H0.333313V17.3333C0.333313 14.756 4.81065 12.6667 10.3333 12.6667ZM19 17.3333C19 15.4933 15.12 14 10.3333 14C5.54665 14 1.66665 15.4933 1.66665 17.3333V19.3333H19V17.3333ZM10.3333 0.666656C11.571 0.666656 12.758 1.15832 13.6331 2.03349C14.5083 2.90866 15 4.09565 15 5.33332C15 6.571 14.5083 7.75799 13.6331 8.63315C12.758 9.50832 11.571 9.99999 10.3333 9.99999C9.09564 9.99999 7.90865 9.50832 7.03348 8.63315C6.15831 7.75799 5.66665 6.571 5.66665 5.33332C5.66665 4.09565 6.15831 2.90866 7.03348 2.03349C7.90865 1.15832 9.09564 0.666656 10.3333 0.666656ZM10.3333 1.99999C9.44926 1.99999 8.60141 2.35118 7.97629 2.9763C7.35117 3.60142 6.99998 4.44927 6.99998 5.33332C6.99998 6.21738 7.35117 7.06522 7.97629 7.69035C8.60141 8.31547 9.44926 8.66666 10.3333 8.66666C11.2174 8.66666 12.0652 8.31547 12.6903 7.69035C13.3155 7.06522 13.6666 6.21738 13.6666 5.33332C13.6666 4.44927 13.3155 3.60142 12.6903 2.9763C12.0652 2.35118 11.2174 1.99999 10.3333 1.99999Z" fill="white"/>
</svg>
