<svg width="21" height="21" viewBox="0 0 21 21" fill="none" xmlns="http://www.w3.org/2000/svg">
<path d="M10.3334 12.6667C15.856 12.6667 20.3334 14.756 20.3334 17.3334V20.6667H0.333374V17.3334C0.333374 14.756 4.81071 12.6667 10.3334 12.6667ZM19 17.3334C19 15.4934 15.12 14 10.3334 14C5.54671 14 1.66671 15.4934 1.66671 17.3334V19.3334H19V17.3334ZM10.3334 0.666687C11.5711 0.666687 12.758 1.15835 13.6332 2.03352C14.5084 2.90869 15 4.09568 15 5.33335C15 6.57103 14.5084 7.75802 13.6332 8.63319C12.758 9.50836 11.5711 10 10.3334 10C9.0957 10 7.90871 9.50836 7.03354 8.63319C6.15837 7.75802 5.66671 6.57103 5.66671 5.33335C5.66671 4.09568 6.15837 2.90869 7.03354 2.03352C7.90871 1.15835 9.0957 0.666687 10.3334 0.666687ZM10.3334 2.00002C9.44932 2.00002 8.60147 2.35121 7.97635 2.97633C7.35123 3.60145 7.00004 4.4493 7.00004 5.33335C7.00004 6.21741 7.35123 7.06526 7.97635 7.69038C8.60147 8.3155 9.44932 8.66669 10.3334 8.66669C11.2174 8.66669 12.0653 8.3155 12.6904 7.69038C13.3155 7.06526 13.6667 6.21741 13.6667 5.33335C13.6667 4.4493 13.3155 3.60145 12.6904 2.97633C12.0653 2.35121 11.2174 2.00002 10.3334 2.00002Z" fill="#2E2E2E"/>
</svg>
