<svg width="85" height="64" viewBox="0 0 85 64" fill="none" xmlns="http://www.w3.org/2000/svg">
<g clip-path="url(#clip0)">
<path d="M6.11493 42.8802C6.11493 42.5267 6.40312 42.2402 6.75861 42.2402H11.908C12.2635 42.2402 12.5517 42.5267 12.5517 42.8802V47.3602C12.5517 47.7137 12.2635 48.0002 11.908 48.0002H6.75861C6.40312 48.0002 6.11493 47.7137 6.11493 47.3602V42.8802Z" fill="url(#paint0_linear)"/>
<path d="M17.3793 32.64C17.3793 32.2865 17.0238 32 17.3793 32H52C54 32 56 34 56 36V60C56 62 54 64 52 64H18.023C17.6675 64 17.3793 63.7135 17.3793 63.36V32.64Z" fill="url(#paint1_linear)"/>
<path d="M12.5517 32.64C12.5517 32.2865 12.8399 32 13.1954 32H19.954C20.3095 32 20.5977 32.2865 20.5977 32.64V38.08C20.5977 38.4335 20.3095 38.72 19.954 38.72H13.1954C12.8399 38.72 12.5517 38.4335 12.5517 38.08V32.64Z" fill="url(#paint2_linear)"/>
<path d="M15.7701 57.9203C15.7701 57.5668 16.0583 57.2803 16.4138 57.2803H23.1724C23.5279 57.2803 23.8161 57.5668 23.8161 57.9203V63.3603C23.8161 63.7138 23.5279 64.0003 23.1724 64.0003H16.4138C16.0583 64.0003 15.7701 63.7138 15.7701 63.3603V57.9203Z" fill="url(#paint3_linear)"/>
<path d="M15.1264 41.2796C15.1264 40.9261 15.4146 40.6396 15.7701 40.6396H22.5287C22.8842 40.6396 23.1724 40.9261 23.1724 41.2796V46.7197C23.1724 47.0732 22.8842 47.3596 22.5287 47.3596H15.7701C15.4146 47.3596 15.1264 47.0732 15.1264 46.7197V41.2796Z" fill="url(#paint4_linear)"/>
<path d="M13.5172 49.6C13.5172 49.2465 13.8054 48.96 14.1609 48.96H20.9195C21.275 48.96 21.5632 49.2465 21.5632 49.6V55.04C21.5632 55.3935 21.275 55.68 20.9195 55.68H14.1609C13.8054 55.68 13.5172 55.3935 13.5172 55.04V49.6Z" fill="url(#paint5_linear)"/>
<path d="M3.86206 34.2396C3.86206 33.8861 4.15024 33.5996 4.50574 33.5996H9.65516C10.0107 33.5996 10.2989 33.8861 10.2989 34.2396V38.3996C10.2989 38.7531 10.0107 39.0396 9.65516 39.0396H4.50574C4.15024 39.0396 3.86206 38.7531 3.86206 38.3996V34.2396Z" fill="url(#paint6_linear)"/>
<path d="M4.1839 54.3998C4.1839 54.0463 4.47208 53.7598 4.82758 53.7598H11.5862C11.9417 53.7598 12.2299 54.0463 12.2299 54.3998V59.8398C12.2299 60.1933 11.9417 60.4798 11.5862 60.4798H4.82758C4.47208 60.4798 4.1839 60.1933 4.1839 59.8398V54.3998Z" fill="url(#paint7_linear)"/>
<path d="M0 42.2396C0 41.8861 0.288185 41.5996 0.643678 41.5996H2.89655C3.25205 41.5996 3.54023 41.8861 3.54023 42.2396V43.8396C3.54023 44.1931 3.25205 44.4796 2.89655 44.4796H0.643678C0.288185 44.4796 0 44.1931 0 43.8396V42.2396Z" fill="url(#paint8_linear)"/>
<path d="M1.60919 49.9203C1.60919 49.5668 1.89737 49.2803 2.25286 49.2803H4.50574C4.86123 49.2803 5.14942 49.5668 5.14942 49.9203V51.5203C5.14942 51.8738 4.86123 52.1603 4.50574 52.1603H2.25286C1.89737 52.1603 1.60919 51.8738 1.60919 51.5203V49.9203Z" fill="url(#paint9_linear)"/>
<path d="M0.965515 61.1205C0.965515 60.767 1.2537 60.4805 1.6092 60.4805H2.89655C3.25205 60.4805 3.54023 60.767 3.54023 61.1205V61.4405C3.54023 61.794 3.25205 62.0805 2.89655 62.0805H1.6092C1.2537 62.0805 0.965515 61.794 0.965515 61.4405V61.1205Z" fill="url(#paint10_linear)"/>
<path d="M10.2989 51.5199C10.2989 51.1664 10.587 50.8799 10.9425 50.8799H11.5862C11.9417 50.8799 12.2299 51.1664 12.2299 51.5199V51.8399C12.2299 52.1934 11.9417 52.4799 11.5862 52.4799H10.9425C10.587 52.4799 10.2989 52.1934 10.2989 51.8399V51.5199Z" fill="url(#paint11_linear)"/>
<path d="M0 36.1595C0 35.806 0.288185 35.5195 0.643678 35.5195H1.28736C1.64285 35.5195 1.93103 35.806 1.93103 36.1595V36.4795C1.93103 36.833 1.64285 37.1195 1.28736 37.1195H0.643678C0.288184 37.1195 0 36.833 0 36.4795V36.1595Z" fill="url(#paint12_linear)"/>
<path d="M12.2299 62.0804C12.2299 61.7269 12.5181 61.4404 12.8736 61.4404H13.5172C13.8727 61.4404 14.1609 61.7269 14.1609 62.0804V62.4004C14.1609 62.7539 13.8727 63.0404 13.5172 63.0404H12.8736C12.5181 63.0404 12.2299 62.7539 12.2299 62.4004V62.0804Z" fill="url(#paint13_linear)"/>
<path d="M43.2811 43.3594C42.6343 43.3594 42.1093 43.8844 42.1093 44.5313C42.1093 45.1781 42.6343 45.7031 43.2811 45.7031C43.928 45.7031 44.453 45.1781 44.453 44.5313C44.453 43.8844 43.928 43.3594 43.2811 43.3594Z" fill="#222222"/>
<path d="M77.7511 22.2656L84.6568 15.3598C84.9473 15.0693 85.0644 14.6479 84.9656 14.2492C84.8668 13.8504 84.5664 13.5326 84.1738 13.4115L67.3574 8.22118C65.8415 3.3484 61.3358 0 56.1717 0C51.3713 0 47.078 2.92559 45.3011 7.33887L25.8229 13.4125C25.4314 13.5346 25.1321 13.8527 25.034 14.251C24.9359 14.6492 25.0531 15.0699 25.3431 15.3599L32.4305 22.4473L27.9605 29.8975C27.7776 30.2023 27.743 30.5737 27.8663 30.9071C27.9896 31.2405 28.2576 31.4998 28.5948 31.6122L35.078 33.7731V51.7968C35.078 52.2852 35.381 52.7225 35.8384 52.894C39.8025 54.3804 54.5312 59.9044 54.6103 59.9324C54.8428 60.0143 55.1047 60.0255 55.3601 59.9429C55.3635 59.9417 55.367 59.941 55.3704 59.9398L76.4641 52.9086C76.9426 52.7491 77.2655 52.3012 77.2655 51.7968V33.2905L84.1793 31.1179C84.5702 30.9951 84.8686 30.677 84.9662 30.2791C85.0637 29.8811 84.9464 29.4611 84.6567 29.1713L77.7511 22.2656ZM67.8905 11.7188C67.8905 11.421 67.8779 11.124 67.8556 10.8278L81.6244 15.0776L75.7771 20.9248L66.223 17.7405C67.3049 15.9322 67.8905 13.8455 67.8905 11.7188ZM47.3038 8.6686C48.6047 4.88555 52.1685 2.34375 56.1717 2.34375C60.4844 2.34375 64.2247 5.26079 65.2676 9.43735C65.4529 10.1795 65.5467 10.9471 65.5467 11.7188C65.5467 13.8954 64.8244 15.9356 63.4575 17.6194C61.6672 19.8275 59.0117 21.0938 56.1717 21.0938C53.1019 21.0938 50.2225 19.587 48.4687 17.0621C47.3749 15.4911 46.7967 13.6432 46.7967 11.7188C46.7967 10.6722 46.9672 9.64594 47.3038 8.6686ZM28.3708 15.0731L44.5778 10.0195C44.4965 10.5794 44.453 11.1466 44.453 11.7187C44.453 13.6055 44.8999 15.4331 45.7519 17.082L34.2226 20.9248L28.3708 15.0731ZM30.7219 29.8506L34.4274 23.6746L53.2433 29.9466L49.538 36.1226C47.5288 35.4529 32.8671 30.5656 30.7219 29.8506ZM53.828 57.1372L37.4217 50.9848V34.5544C50.3299 38.8343 49.6996 38.7037 50.059 38.7037C50.4619 38.7037 50.8477 38.4952 51.0641 38.1346L53.828 33.5279V57.1372ZM54.9999 28.0616L37.6121 22.2658L47.0801 19.1099C49.2961 21.8342 52.6321 23.4375 56.1717 23.4375C59.4462 23.4375 62.5236 22.09 64.7372 19.7158L72.3877 22.2657L54.9999 28.0616ZM74.9217 50.9522L56.1717 57.2022V32.6373L60.3261 37.8299C60.6284 38.2076 61.1315 38.3607 61.5926 38.2158L74.9217 34.0272V50.9522ZM61.6552 35.7395L56.9649 29.8771L75.7771 23.6064L81.6322 29.4616L61.6552 35.7395Z" fill="#222222"/>
<path d="M50.724 45.9605L48.1177 44.9831C47.5117 44.756 46.8363 45.0629 46.6089 45.6689C46.3817 46.275 46.6887 46.9505 47.2947 47.1777L49.9009 48.155C50.5082 48.3826 51.1829 48.0742 51.4097 47.4692C51.637 46.8633 51.3299 46.1877 50.724 45.9605Z" fill="#222222"/>
<path d="M50.7238 50.9666L43.6926 48.3298C43.0866 48.1026 42.4111 48.4096 42.1838 49.0156C41.9564 49.6216 42.2636 50.2972 42.8696 50.5244L49.9008 53.1611C50.0364 53.212 50.1754 53.2361 50.3122 53.2361C50.7867 53.2361 51.2331 52.9459 51.4096 52.4753C51.637 51.8692 51.3299 51.1938 50.7238 50.9666Z" fill="#222222"/>
<path d="M62.8599 7.37451C62.4023 6.91677 61.6602 6.91689 61.2025 7.37451L54.9999 13.5773L53.4848 12.0621C53.0272 11.6045 52.2851 11.6045 51.8274 12.0621C51.3697 12.5198 51.3698 13.2618 51.8274 13.7195L54.1713 16.0632C54.6289 16.5208 55.3709 16.5208 55.8286 16.0632L62.8599 9.03189C63.3175 8.57427 63.3175 7.83224 62.8599 7.37451Z" fill="#222222"/>
</g>
<defs>
<linearGradient id="paint0_linear" x1="56" y1="64.8002" x2="24.1379" y2="64.962" gradientUnits="userSpaceOnUse">
<stop stop-color="#FF9F18"/>
<stop offset="1" stop-color="#FDB813"/>
</linearGradient>
<linearGradient id="paint1_linear" x1="56" y1="64.8" x2="24.1379" y2="64.9618" gradientUnits="userSpaceOnUse">
<stop stop-color="#FF9F18"/>
<stop offset="1" stop-color="#FDB813"/>
</linearGradient>
<linearGradient id="paint2_linear" x1="56" y1="64.8" x2="24.1379" y2="64.9618" gradientUnits="userSpaceOnUse">
<stop stop-color="#FF9F18"/>
<stop offset="1" stop-color="#FDB813"/>
</linearGradient>
<linearGradient id="paint3_linear" x1="56" y1="64.8003" x2="24.1379" y2="64.9621" gradientUnits="userSpaceOnUse">
<stop stop-color="#FF9F18"/>
<stop offset="1" stop-color="#FDB813"/>
</linearGradient>
<linearGradient id="paint4_linear" x1="56" y1="64.7997" x2="24.1379" y2="64.9615" gradientUnits="userSpaceOnUse">
<stop stop-color="#FF9F18"/>
<stop offset="1" stop-color="#FDB813"/>
</linearGradient>
<linearGradient id="paint5_linear" x1="56" y1="64.8" x2="24.1379" y2="64.9618" gradientUnits="userSpaceOnUse">
<stop stop-color="#FF9F18"/>
<stop offset="1" stop-color="#FDB813"/>
</linearGradient>
<linearGradient id="paint6_linear" x1="56" y1="64.7996" x2="24.1379" y2="64.9614" gradientUnits="userSpaceOnUse">
<stop stop-color="#FF9F18"/>
<stop offset="1" stop-color="#FDB813"/>
</linearGradient>
<linearGradient id="paint7_linear" x1="56" y1="64.7998" x2="24.1379" y2="64.9616" gradientUnits="userSpaceOnUse">
<stop stop-color="#FF9F18"/>
<stop offset="1" stop-color="#FDB813"/>
</linearGradient>
<linearGradient id="paint8_linear" x1="56" y1="64.7996" x2="24.1379" y2="64.9614" gradientUnits="userSpaceOnUse">
<stop stop-color="#FF9F18"/>
<stop offset="1" stop-color="#FDB813"/>
</linearGradient>
<linearGradient id="paint9_linear" x1="56" y1="64.8003" x2="24.1379" y2="64.9621" gradientUnits="userSpaceOnUse">
<stop stop-color="#FF9F18"/>
<stop offset="1" stop-color="#FDB813"/>
</linearGradient>
<linearGradient id="paint10_linear" x1="56" y1="64.8005" x2="24.1379" y2="64.9623" gradientUnits="userSpaceOnUse">
<stop stop-color="#FF9F18"/>
<stop offset="1" stop-color="#FDB813"/>
</linearGradient>
<linearGradient id="paint11_linear" x1="56" y1="64.7999" x2="24.1379" y2="64.9617" gradientUnits="userSpaceOnUse">
<stop stop-color="#FF9F18"/>
<stop offset="1" stop-color="#FDB813"/>
</linearGradient>
<linearGradient id="paint12_linear" x1="56" y1="64.7995" x2="24.1379" y2="64.9613" gradientUnits="userSpaceOnUse">
<stop stop-color="#FF9F18"/>
<stop offset="1" stop-color="#FDB813"/>
</linearGradient>
<linearGradient id="paint13_linear" x1="56" y1="64.8004" x2="24.1379" y2="64.9622" gradientUnits="userSpaceOnUse">
<stop stop-color="#FF9F18"/>
<stop offset="1" stop-color="#FDB813"/>
</linearGradient>
<clipPath id="clip0">
<rect width="85" height="64" fill="white"/>
</clipPath>
</defs>
</svg>
