<svg width="48" height="48" viewBox="0 0 52 52" fill="none" xmlns="http://www.w3.org/2000/svg">
<path d="M26.0003 10.9844C23.0305 10.9844 20.1274 11.8651 17.6581 13.515C15.1887 15.1649 13.2642 17.5101 12.1277 20.2538C10.9912 22.9976 10.6938 26.0167 11.2732 28.9294C11.8526 31.8422 13.2827 34.5177 15.3826 36.6177C17.4826 38.7177 20.1581 40.1478 23.0709 40.7271C25.9836 41.3065 29.0028 41.0092 31.7465 39.8727C34.4903 38.7362 36.8354 36.8116 38.4853 34.3423C40.1353 31.873 41.0159 28.9699 41.0159 26C41.0114 22.019 39.428 18.2024 36.613 15.3873C33.798 12.5723 29.9813 10.9889 26.0003 10.9844ZM26.0003 38.1094C23.6053 38.1094 21.2641 37.3992 19.2727 36.0686C17.2813 34.738 15.7292 32.8468 14.8127 30.6341C13.8961 28.4214 13.6563 25.9866 14.1236 23.6376C14.5908 21.2886 15.7441 19.1309 17.4377 17.4374C19.1312 15.7439 21.2889 14.5906 23.6379 14.1233C25.9869 13.6561 28.4216 13.8959 30.6343 14.8124C32.847 15.729 34.7383 17.2811 36.0689 19.2724C37.3995 21.2638 38.1097 23.605 38.1097 26C38.1061 29.2105 36.8291 32.2885 34.5589 34.5587C32.2888 36.8289 29.2108 38.1058 26.0003 38.1094ZM48.7659 27.4977V24.5028L51.0182 21.1243C51.2986 20.7038 51.4833 20.227 51.5595 19.7274C51.6356 19.2277 51.6012 18.7175 51.4588 18.2326C50.96 16.5919 50.3031 15.0035 49.4976 13.4896C49.2582 13.0443 48.9226 12.658 48.5153 12.3585C48.108 12.0591 47.6392 11.8541 47.1428 11.7584L43.1571 10.9612L41.0394 8.84348L40.2421 4.8578C40.1465 4.36135 39.9415 3.89243 39.6421 3.48508C39.3427 3.07773 38.9563 2.74217 38.511 2.50277C36.9971 1.69735 35.4086 1.0407 33.768 0.542018C33.283 0.399455 32.7727 0.365018 32.2729 0.441135C31.7732 0.517252 31.2963 0.70207 30.8758 0.982557L27.498 3.23442H24.5026L21.1248 0.982557C20.7043 0.702106 20.2273 0.517291 19.7276 0.441134C19.2279 0.364977 18.7176 0.399331 18.2326 0.541776C16.5919 1.0405 15.0035 1.69715 13.4896 2.50253C13.0443 2.74195 12.6579 3.07755 12.3584 3.48494C12.059 3.89234 11.854 4.36131 11.7584 4.8578L10.9616 8.84324L8.84348 10.9612L4.85804 11.7582C4.36158 11.8538 3.89263 12.0587 3.48524 12.3581C3.07785 12.6575 2.74223 13.0439 2.50277 13.4891C1.69728 15.0031 1.04054 16.5916 0.541776 18.2324C0.399331 18.7174 0.364977 19.2277 0.441134 19.7274C0.517291 20.2271 0.702106 20.704 0.982557 21.1246L3.23442 24.5026V27.4975L0.982315 30.8755C0.701915 31.2961 0.517167 31.773 0.441093 32.2727C0.365019 32.7724 0.39947 33.2828 0.542018 33.7677C1.04066 35.4085 1.69732 36.997 2.50277 38.511C2.74221 38.9562 3.07778 39.3425 3.48513 39.6419C3.89248 39.9413 4.36138 40.1463 4.8578 40.2419L8.84348 41.0392L10.9612 43.1568L11.7582 47.1425C11.8538 47.639 12.0587 48.1079 12.3581 48.5153C12.6575 48.9227 13.0439 49.2583 13.4891 49.4978C15.003 50.3032 16.5914 50.9599 18.2321 51.4585C18.7171 51.601 19.2274 51.6354 19.7272 51.5592C20.2269 51.4831 20.7038 51.2982 21.1243 51.0178L24.5024 48.7659H27.4977L30.8758 51.0182C31.4472 51.3975 32.1177 51.5999 32.8036 51.6002C33.1303 51.6008 33.4552 51.553 33.768 51.4585C35.4086 50.9599 36.9969 50.3034 38.5107 49.498C38.956 49.2586 39.3424 48.923 39.6419 48.5156C39.9413 48.1082 40.1463 47.6392 40.2419 47.1428L41.0392 43.1571L43.1568 41.0392L47.1425 40.2421C47.6389 40.1465 48.1078 39.9416 48.5152 39.6422C48.9225 39.3428 49.2581 38.9564 49.4976 38.5112C50.3031 36.9973 50.9599 35.4089 51.4588 33.7682C51.6012 33.2832 51.6356 32.7729 51.5595 32.2732C51.4833 31.7735 51.2985 31.2965 51.018 30.876L48.7659 27.4977ZM48.6782 32.9225C48.2343 34.383 47.6498 35.7969 46.9328 37.1445C46.8941 37.2093 46.8418 37.2649 46.7797 37.3076C46.7176 37.3504 46.6469 37.3793 46.5727 37.3923L42.1554 38.2756C41.8741 38.3318 41.6158 38.47 41.4129 38.6727L38.6727 41.4131C38.47 41.616 38.3318 41.8744 38.2756 42.1556L37.3921 46.5729C37.379 46.6472 37.3501 46.7178 37.3074 46.7799C37.2646 46.8421 37.209 46.8943 37.1443 46.933C35.7968 47.6499 34.3829 48.2344 32.9225 48.6782C32.8487 48.6971 32.7717 48.6998 32.6967 48.6863C32.6218 48.6728 32.5506 48.6434 32.488 48.6L28.7438 46.1038C28.5051 45.9445 28.2245 45.8594 27.9375 45.8594H24.0625C23.7757 45.8594 23.4952 45.9444 23.2565 46.1035L19.5123 48.5995C19.4498 48.643 19.3786 48.6725 19.3036 48.686C19.2286 48.6995 19.1516 48.6967 19.0778 48.6777C17.6174 48.234 16.2034 47.6496 14.8558 46.9328C14.791 46.894 14.7354 46.8418 14.6927 46.7796C14.6499 46.7174 14.621 46.6467 14.608 46.5724L13.7248 42.1554C13.6685 41.874 13.5303 41.6156 13.3276 41.4126L10.5872 38.673C10.3844 38.4701 10.126 38.3318 9.84468 38.2756L5.42742 37.3921C5.35315 37.379 5.28255 37.3501 5.22042 37.3073C5.15828 37.2646 5.10606 37.209 5.06729 37.1443C4.35039 35.7966 3.76592 34.3826 3.32209 32.922C3.30324 32.8482 3.30048 32.7713 3.31397 32.6964C3.32747 32.6214 3.35692 32.5503 3.40032 32.4878L5.8963 28.7435C6.05556 28.5049 6.14059 28.2244 6.14067 27.9375V24.0625C6.14066 23.7757 6.05572 23.4952 5.89654 23.2565L3.40056 19.5123C3.3571 19.4498 3.32761 19.3786 3.31411 19.3036C3.30062 19.2286 3.30342 19.1516 3.32233 19.0778C3.76631 17.6173 4.35086 16.2033 5.06778 14.8555C5.10656 14.7909 5.15879 14.7353 5.22092 14.6926C5.28306 14.6499 5.35365 14.6211 5.42791 14.608L9.84492 13.7248C10.1262 13.6686 10.3846 13.5304 10.5875 13.3276L13.3276 10.5872C13.5304 10.3843 13.6687 10.126 13.725 9.84468L14.6083 5.42767C14.6213 5.35337 14.6502 5.28276 14.6929 5.22062C14.7357 5.15848 14.7913 5.10627 14.856 5.06753C16.2036 4.35068 17.6176 3.76621 19.0781 3.32233C19.1519 3.30345 19.2289 3.30066 19.3038 3.31416C19.3788 3.32766 19.45 3.35712 19.5126 3.40056L23.2568 5.89654C23.4954 6.05567 23.7757 6.14062 24.0625 6.14067H27.9375C28.2244 6.14066 28.5049 6.05572 28.7435 5.89654L32.4878 3.40056C32.5503 3.35715 32.6215 3.32771 32.6965 3.31421C32.7715 3.30071 32.8484 3.30348 32.9222 3.32233C34.3827 3.76616 35.7967 4.35064 37.1443 5.06753C37.209 5.10627 37.2646 5.15848 37.3074 5.22062C37.3501 5.28276 37.379 5.35337 37.3921 5.42767L38.2756 9.84492C38.3318 10.1262 38.47 10.3846 38.6727 10.5875L41.4129 13.3273C41.6157 13.5302 41.8741 13.6684 42.1554 13.7245L46.5724 14.6083C46.6467 14.6213 46.7173 14.6502 46.7795 14.6929C46.8416 14.7357 46.8938 14.7913 46.9325 14.856C47.6495 16.2035 48.2341 17.6174 48.678 19.0778C48.6969 19.1516 48.6997 19.2286 48.6862 19.3036C48.6727 19.3786 48.6432 19.4498 48.5998 19.5123L46.1035 23.2565C45.9443 23.4953 45.8594 23.7758 45.8594 24.0628V27.9378C45.8594 28.2247 45.9444 28.5051 46.1035 28.7438L48.5998 32.488C48.6432 32.5506 48.6727 32.6217 48.6862 32.6967C48.6997 32.7717 48.6969 32.8487 48.678 32.9225H48.6782Z" fill="#2E2E2E"/>
</svg>
