<svg width="97" height="71" viewBox="0 0 97 71" fill="none" xmlns="http://www.w3.org/2000/svg">
<path d="M6.98851 47.24C6.98851 46.8424 7.31786 46.52 7.72414 46.52H13.6092C14.0155 46.52 14.3448 46.8424 14.3448 47.24V52.28C14.3448 52.6776 14.0155 53 13.6092 53H7.72414C7.31786 53 6.98851 52.6776 6.98851 52.28V47.24Z" fill="url(#paint0_linear)"/>
<path d="M19.8621 35.72C19.8621 35.3224 19.4558 35 19.8621 35H59.4286C61.7143 35 64 37.25 64 39.5L64 66.5C64 68.75 61.7143 71 59.4286 71H20.5977C20.1914 71 19.8621 70.6776 19.8621 70.28V35.72Z" fill="url(#paint1_linear)"/>
<path d="M14.3448 35.72C14.3448 35.3224 14.6742 35 15.0805 35H22.8046C23.2109 35 23.5402 35.3224 23.5402 35.72V41.84C23.5402 42.2376 23.2109 42.56 22.8046 42.56H15.0805C14.6742 42.56 14.3448 42.2376 14.3448 41.84V35.72Z" fill="url(#paint2_linear)"/>
<path d="M18.023 64.16C18.023 63.7624 18.3523 63.44 18.7586 63.44H26.4828C26.889 63.44 27.2184 63.7624 27.2184 64.16V70.28C27.2184 70.6776 26.889 71 26.4828 71H18.7586C18.3523 71 18.023 70.6776 18.023 70.28V64.16Z" fill="url(#paint3_linear)"/>
<path d="M17.2874 45.44C17.2874 45.0424 17.6167 44.72 18.023 44.72H25.7471C26.1534 44.72 26.4828 45.0424 26.4828 45.44V51.56C26.4828 51.9576 26.1534 52.28 25.7471 52.28H18.023C17.6167 52.28 17.2874 51.9576 17.2874 51.56V45.44Z" fill="url(#paint4_linear)"/>
<path d="M15.4483 54.8C15.4483 54.4024 15.7776 54.08 16.1839 54.08H23.908C24.3143 54.08 24.6437 54.4024 24.6437 54.8V60.92C24.6437 61.3176 24.3143 61.64 23.908 61.64H16.1839C15.7776 61.64 15.4483 61.3176 15.4483 60.92V54.8Z" fill="url(#paint5_linear)"/>
<path d="M4.41379 37.52C4.41379 37.1224 4.74315 36.8 5.14943 36.8H11.0345C11.4408 36.8 11.7701 37.1224 11.7701 37.52V42.2C11.7701 42.5976 11.4408 42.92 11.0345 42.92H5.14943C4.74315 42.92 4.41379 42.5976 4.41379 42.2V37.52Z" fill="url(#paint6_linear)"/>
<path d="M4.78161 60.2C4.78161 59.8024 5.11096 59.48 5.51724 59.48H13.2414C13.6477 59.48 13.977 59.8024 13.977 60.2V66.32C13.977 66.7176 13.6477 67.04 13.2414 67.04H5.51724C5.11096 67.04 4.78161 66.7176 4.78161 66.32V60.2Z" fill="url(#paint7_linear)"/>
<path d="M0 46.52C0 46.1224 0.329354 45.8 0.735632 45.8H3.31034C3.71662 45.8 4.04598 46.1224 4.04598 46.52V48.32C4.04598 48.7176 3.71662 49.04 3.31034 49.04H0.735632C0.329354 49.04 0 48.7176 0 48.32V46.52Z" fill="url(#paint8_linear)"/>
<path d="M1.83908 55.16C1.83908 54.7624 2.16843 54.44 2.57471 54.44H5.14943C5.5557 54.44 5.88506 54.7624 5.88506 55.16V56.96C5.88506 57.3576 5.5557 57.68 5.14943 57.68H2.57471C2.16843 57.68 1.83908 57.3576 1.83908 56.96V55.16Z" fill="url(#paint9_linear)"/>
<path d="M1.10345 67.76C1.10345 67.3624 1.4328 67.04 1.83908 67.04H3.31034C3.71662 67.04 4.04598 67.3624 4.04598 67.76V68.12C4.04598 68.5176 3.71662 68.84 3.31034 68.84H1.83908C1.4328 68.84 1.10345 68.5176 1.10345 68.12V67.76Z" fill="url(#paint10_linear)"/>
<path d="M11.7701 56.96C11.7701 56.5624 12.0995 56.24 12.5057 56.24H13.2414C13.6477 56.24 13.977 56.5624 13.977 56.96V57.32C13.977 57.7176 13.6477 58.04 13.2414 58.04H12.5057C12.0995 58.04 11.7701 57.7176 11.7701 57.32V56.96Z" fill="url(#paint11_linear)"/>
<path d="M0 39.68C0 39.2824 0.329354 38.96 0.735632 38.96H1.47126C1.87754 38.96 2.2069 39.2824 2.2069 39.68V40.04C2.2069 40.4376 1.87754 40.76 1.47126 40.76H0.735632C0.329354 40.76 0 40.4376 0 40.04V39.68Z" fill="url(#paint12_linear)"/>
<path d="M13.977 68.84C13.977 68.4424 14.3064 68.12 14.7126 68.12H15.4483C15.8546 68.12 16.1839 68.4424 16.1839 68.84V69.2C16.1839 69.5976 15.8546 69.92 15.4483 69.92H14.7126C14.3064 69.92 13.977 69.5976 13.977 69.2V68.84Z" fill="url(#paint13_linear)"/>
<path d="M75.6666 35.2002C72.137 35.2002 69.2666 38.0706 69.2666 41.6002C69.2666 45.1298 72.137 48.0002 75.6666 48.0002C79.1963 48.0002 82.0666 45.1298 82.0666 41.6002C82.0666 38.0706 79.1963 35.2002 75.6666 35.2002ZM75.6666 45.8668C73.3135 45.8668 71.4 43.9532 71.4 41.6002C71.4 39.2471 73.3136 37.3336 75.6666 37.3336C78.0198 37.3336 79.9333 39.2472 79.9333 41.6002C79.9334 43.9533 78.0198 45.8668 75.6666 45.8668Z" fill="#222222"/>
<path d="M77.8 45.8672V50.2747L76.2576 49.2464C75.8992 49.0064 75.4331 49.0064 75.0746 49.2464L73.5332 50.2747V45.8672H71.4V52.2672C71.4 52.6608 71.6165 53.0224 71.9642 53.2079C72.3099 53.3936 72.7322 53.3722 73.0586 53.1546L75.6666 51.4159L78.2746 53.1546C78.4527 53.2729 78.6597 53.3338 78.8666 53.3338C79.0394 53.3338 79.2122 53.2922 79.3701 53.2079C79.7167 53.0223 79.9334 52.6607 79.9334 52.2672V45.8672H77.8Z" fill="#222222"/>
<path d="M71.4 10.667H57.5334V12.8004H71.4V10.667Z" fill="#222222"/>
<path d="M82.0667 17.0664H47.9334V19.1998H82.0667V17.0664Z" fill="#222222"/>
<path d="M71.4 23.4658H47.9334V25.5992H71.4V23.4658Z" fill="#222222"/>
<path d="M82.0666 23.4658H75.6666V25.5992H82.0666V23.4658Z" fill="#222222"/>
<path d="M82.0667 29.8672H47.9334V32.0006H82.0667V29.8672Z" fill="#222222"/>
<path d="M60.7334 36.2666H47.9334V38.4H60.7334V36.2666Z" fill="#222222"/>
<path d="M53.2667 41.6006H47.9334V43.734H53.2667V41.6006Z" fill="#222222"/>
<path d="M60.7334 41.6006H57.5334V43.734H60.7334V41.6006Z" fill="#222222"/>
<path d="M91.6666 0C88.7259 0 86.3332 2.3925 86.3332 5.33337V7.46675C86.3332 8.0555 86.81 8.53337 87.3998 8.53337H95.9332C96.5231 8.53337 96.9999 8.0555 96.9999 7.46675V5.33337C97 2.3925 94.6075 0 91.6666 0ZM94.8666 6.4H88.4666V5.33337C88.4666 3.56912 89.9024 2.13337 91.6666 2.13337C93.4309 2.13337 94.8666 3.56912 94.8666 5.33337V6.4Z" fill="#222222"/>
<path d="M91.6666 0H46.8666C43.9259 0 41.5334 2.3925 41.5334 5.33337V56.5334H43.6667V5.33337C43.6667 3.56912 45.1025 2.13337 46.8667 2.13337H87.4022C86.7314 3.02513 86.3335 4.13338 86.3335 5.33337V58.6668C86.3335 60.431 84.8977 61.8667 83.1335 61.8667H42.6V64H83.1334C86.0741 64 88.4667 61.6075 88.4667 58.6666V5.33337C88.4667 3.56912 89.9025 2.13337 91.6667 2.13337C92.2566 2.13337 92.7334 1.6555 92.7334 1.06675C92.7334 0.478 92.2565 0 91.6666 0Z" fill="#222222"/>
<path d="M83.1334 61.8658C81.3691 61.8658 79.9334 60.4301 79.9334 58.6658V56.5324C79.9334 55.9426 79.4566 55.4658 78.8667 55.4658H34.0666C33.4779 55.4658 33 55.9426 33 56.5324V58.6658C33 61.6067 35.3925 63.9992 38.3334 63.9992H83.1334C83.7232 63.9992 84.2 63.5225 84.2 62.9326C84.2 62.3427 83.7232 61.8658 83.1334 61.8658ZM38.3334 61.8658C36.5691 61.8658 35.1334 60.4301 35.1334 58.6658V57.5992H77.8V58.6658C77.8 59.8658 78.1979 60.9741 78.8688 61.8658H38.3334Z" fill="#222222"/>
<defs>
<linearGradient id="paint0_linear" x1="64" y1="71.9" x2="27.5862" y2="72.0879" gradientUnits="userSpaceOnUse">
<stop stop-color="#FF9F18"/>
<stop offset="1" stop-color="#FDB813"/>
</linearGradient>
<linearGradient id="paint1_linear" x1="64" y1="71.9" x2="27.5862" y2="72.0879" gradientUnits="userSpaceOnUse">
<stop stop-color="#FF9F18"/>
<stop offset="1" stop-color="#FDB813"/>
</linearGradient>
<linearGradient id="paint2_linear" x1="64" y1="71.9" x2="27.5862" y2="72.0879" gradientUnits="userSpaceOnUse">
<stop stop-color="#FF9F18"/>
<stop offset="1" stop-color="#FDB813"/>
</linearGradient>
<linearGradient id="paint3_linear" x1="64" y1="71.9" x2="27.5862" y2="72.0879" gradientUnits="userSpaceOnUse">
<stop stop-color="#FF9F18"/>
<stop offset="1" stop-color="#FDB813"/>
</linearGradient>
<linearGradient id="paint4_linear" x1="64" y1="71.9" x2="27.5862" y2="72.0879" gradientUnits="userSpaceOnUse">
<stop stop-color="#FF9F18"/>
<stop offset="1" stop-color="#FDB813"/>
</linearGradient>
<linearGradient id="paint5_linear" x1="64" y1="71.9" x2="27.5862" y2="72.0879" gradientUnits="userSpaceOnUse">
<stop stop-color="#FF9F18"/>
<stop offset="1" stop-color="#FDB813"/>
</linearGradient>
<linearGradient id="paint6_linear" x1="64" y1="71.9" x2="27.5862" y2="72.0879" gradientUnits="userSpaceOnUse">
<stop stop-color="#FF9F18"/>
<stop offset="1" stop-color="#FDB813"/>
</linearGradient>
<linearGradient id="paint7_linear" x1="64" y1="71.9" x2="27.5862" y2="72.0879" gradientUnits="userSpaceOnUse">
<stop stop-color="#FF9F18"/>
<stop offset="1" stop-color="#FDB813"/>
</linearGradient>
<linearGradient id="paint8_linear" x1="64" y1="71.9" x2="27.5862" y2="72.0879" gradientUnits="userSpaceOnUse">
<stop stop-color="#FF9F18"/>
<stop offset="1" stop-color="#FDB813"/>
</linearGradient>
<linearGradient id="paint9_linear" x1="64" y1="71.9" x2="27.5862" y2="72.0879" gradientUnits="userSpaceOnUse">
<stop stop-color="#FF9F18"/>
<stop offset="1" stop-color="#FDB813"/>
</linearGradient>
<linearGradient id="paint10_linear" x1="64" y1="71.9" x2="27.5862" y2="72.0879" gradientUnits="userSpaceOnUse">
<stop stop-color="#FF9F18"/>
<stop offset="1" stop-color="#FDB813"/>
</linearGradient>
<linearGradient id="paint11_linear" x1="64" y1="71.9" x2="27.5862" y2="72.0879" gradientUnits="userSpaceOnUse">
<stop stop-color="#FF9F18"/>
<stop offset="1" stop-color="#FDB813"/>
</linearGradient>
<linearGradient id="paint12_linear" x1="64" y1="71.9" x2="27.5862" y2="72.0879" gradientUnits="userSpaceOnUse">
<stop stop-color="#FF9F18"/>
<stop offset="1" stop-color="#FDB813"/>
</linearGradient>
<linearGradient id="paint13_linear" x1="64" y1="71.9" x2="27.5862" y2="72.0879" gradientUnits="userSpaceOnUse">
<stop stop-color="#FF9F18"/>
<stop offset="1" stop-color="#FDB813"/>
</linearGradient>
</defs>
</svg>
