<svg width="36" height="31" viewBox="0 0 36 31" fill="none" xmlns="http://www.w3.org/2000/svg">
<g clip-path="url(#clip0)">
<path d="M35.7564 31.0001H30.291C30.2485 31.0005 30.2067 30.9897 30.1698 30.9689C30.1329 30.9481 30.1022 30.9179 30.081 30.8816L14.9778 5.10356C14.9649 5.08125 14.9582 5.05603 14.9582 5.03037C14.9582 5.00472 14.9649 4.9795 14.9778 4.95719V4.95185L17.7894 0.118621C17.8101 0.0815715 17.8406 0.0506891 17.8775 0.0291845C17.9144 0.00767978 17.9565 -0.00366211 17.9994 -0.00366211C18.0422 -0.00366211 18.0843 0.00767978 18.1213 0.0291845C18.1582 0.0506891 18.1886 0.0815715 18.2094 0.118621L35.9694 30.6374C35.9915 30.6742 36.0033 30.7161 36.0035 30.7588C36.0038 30.8016 35.9924 30.8436 35.9707 30.8806C35.949 30.9175 35.9177 30.9481 35.88 30.9691C35.8423 30.9902 35.7996 31.0008 35.7564 31.0001Z" fill="url(#paint0_linear)"/>
<path d="M15.651 14.0358L5.80384 30.8804C5.78226 30.9166 5.75147 30.9466 5.71452 30.9674C5.67757 30.9882 5.63576 30.9991 5.59324 30.9989H0.243637C0.200961 30.999 0.159011 30.988 0.122007 30.9671C0.0850033 30.9461 0.0542502 30.9158 0.0328418 30.8793C0.0114334 30.8429 0.000124856 30.8015 5.37432e-05 30.7593C-1.73691e-05 30.7172 0.0111515 30.6758 0.0324367 30.6392L12.5244 9.16822C12.5459 9.13209 12.5766 9.10214 12.6135 9.08132C12.6503 9.06051 12.692 9.04956 12.7344 9.04956C12.7769 9.04956 12.8186 9.06051 12.8554 9.08132C12.8922 9.10214 12.9229 9.13209 12.9444 9.16822L15.6492 13.7946C15.6708 13.8312 15.6824 13.8727 15.6827 13.915C15.683 13.9573 15.6721 13.999 15.651 14.0358Z" fill="url(#paint1_linear)"/>
<path d="M25.647 31.0001H10.4346C10.3917 31 10.3496 30.9888 10.3126 30.9676C10.2755 30.9463 10.2448 30.9158 10.2235 30.8791C10.2022 30.8423 10.1911 30.8007 10.1913 30.7584C10.1915 30.7161 10.2029 30.6745 10.2246 30.638L17.73 18.053C17.7515 18.0169 17.7822 17.9869 17.819 17.9661C17.8559 17.9453 17.8976 17.9343 17.94 17.9343C17.9824 17.9343 18.0241 17.9453 18.061 17.9661C18.0978 17.9869 18.1285 18.0169 18.15 18.053L25.8546 30.6374C25.8775 30.6736 25.8901 30.7152 25.891 30.7578C25.892 30.8005 25.8813 30.8426 25.86 30.8797C25.8388 30.9169 25.8077 30.9476 25.7703 30.9688C25.7328 30.99 25.6902 31.0008 25.647 31.0001Z" fill="url(#paint2_linear)"/>
</g>
<defs>
<linearGradient id="paint0_linear" x1="20.6874" y1="21.6145" x2="30.2168" y2="11.9661" gradientUnits="userSpaceOnUse">
<stop stop-color="#F15A24"/>
<stop offset="0.19" stop-color="#F36B24"/>
<stop offset="0.58" stop-color="#F89924"/>
<stop offset="0.59" stop-color="#F89C27"/>
<stop offset="0.66" stop-color="#FAA732"/>
<stop offset="0.75" stop-color="#FBAE39"/>
<stop offset="1" stop-color="#FBB03B"/>
</linearGradient>
<linearGradient id="paint1_linear" x1="-236.023" y1="11108.6" x2="5806.34" y2="6791.42" gradientUnits="userSpaceOnUse">
<stop stop-color="#F15A24"/>
<stop offset="0.19" stop-color="#F36B24"/>
<stop offset="0.58" stop-color="#F89924"/>
<stop offset="0.59" stop-color="#F89C27"/>
<stop offset="0.66" stop-color="#FAA732"/>
<stop offset="0.75" stop-color="#FBAE39"/>
<stop offset="1" stop-color="#FBB03B"/>
</linearGradient>
<linearGradient id="paint2_linear" x1="3347.98" y1="7380.5" x2="5589.68" y2="4687.03" gradientUnits="userSpaceOnUse">
<stop stop-color="#F15A24"/>
<stop offset="0.19" stop-color="#F36B24"/>
<stop offset="0.58" stop-color="#F89924"/>
<stop offset="0.59" stop-color="#F89C27"/>
<stop offset="0.66" stop-color="#FAA732"/>
<stop offset="0.75" stop-color="#FBAE39"/>
<stop offset="1" stop-color="#FBB03B"/>
</linearGradient>
<clipPath id="clip0">
<rect width="36" height="31" fill="white"/>
</clipPath>
</defs>
</svg>
