<svg width="233" height="62" viewBox="0 0 233 62" fill="none" xmlns="http://www.w3.org/2000/svg">
<g style="mix-blend-mode:darken">
<g clip-path="url(#clip0)">
<path d="M71.5128 61.9999H60.582C60.497 62.0006 60.4134 61.9791 60.3396 61.9375C60.2658 61.8958 60.2045 61.8355 60.162 61.7629L29.9556 10.2068C29.93 10.1622 29.9165 10.1118 29.9165 10.0604C29.9165 10.0091 29.93 9.95868 29.9556 9.91407V9.9034L35.5788 0.236937C35.6203 0.162838 35.6812 0.101073 35.7551 0.0580637C35.8289 0.0150544 35.9131 -0.00762939 35.9988 -0.00762939C36.0846 -0.00762939 36.1688 0.0150544 36.2426 0.0580637C36.3165 0.101073 36.3773 0.162838 36.4188 0.236937L71.9388 61.2746C71.9831 61.348 72.0067 61.4318 72.0071 61.5173C72.0076 61.6028 71.985 61.6869 71.9415 61.7608C71.8981 61.8348 71.8355 61.8959 71.7601 61.9379C71.6847 61.98 71.5994 62.0014 71.5128 61.9999Z" fill="#222222"/>
<path d="M31.302 28.0713L11.6076 61.7605C11.5645 61.8329 11.5029 61.8929 11.429 61.9345C11.3551 61.9761 11.2715 61.9978 11.1864 61.9976H0.487228C0.401877 61.9978 0.317977 61.9758 0.243969 61.9338C0.169961 61.8918 0.108455 61.8313 0.0656378 61.7584C0.0228211 61.6855 0.000203935 61.6027 6.17101e-05 61.5184C-8.05146e-05 61.4341 0.0222572 61.3512 0.0648277 61.2782L25.0488 18.3361C25.0918 18.2639 25.1532 18.204 25.2269 18.1623C25.3006 18.1207 25.384 18.0988 25.4688 18.0988C25.5537 18.0988 25.6371 18.1207 25.7108 18.1623C25.7844 18.204 25.8458 18.2639 25.8888 18.3361L31.2984 27.589C31.3416 27.6621 31.3647 27.7451 31.3653 27.8297C31.3659 27.9143 31.3441 27.9976 31.302 28.0713Z" fill="#222222"/>
<path d="M51.294 61.9999H20.8693C20.7836 61.9998 20.6994 61.9774 20.6253 61.9349C20.5511 61.8924 20.4896 61.8314 20.447 61.7579C20.4044 61.6845 20.3822 61.6012 20.3826 61.5166C20.383 61.4319 20.406 61.3488 20.4493 61.2758L35.4601 36.1057C35.5031 36.0335 35.5644 35.9736 35.6381 35.9319C35.7118 35.8903 35.7952 35.8684 35.8801 35.8684C35.9649 35.8684 36.0483 35.8903 36.122 35.9319C36.1957 35.9736 36.257 36.0335 36.3001 36.1057L51.7092 61.2746C51.755 61.3469 51.7802 61.4301 51.7821 61.5154C51.784 61.6007 51.7626 61.685 51.7201 61.7592C51.6776 61.8335 51.6155 61.8951 51.5406 61.9374C51.4656 61.9798 51.3804 62.0014 51.294 61.9999Z" fill="#222222"/>
</g>
</g>
<path d="M98.275 26.5C97.9416 26.5 97.7 26.4167 97.55 26.25C97.4 26.0833 97.2916 25.9583 97.225 25.875L93.25 20.35L89.3 25.875C89.2333 25.9583 89.125 26.0833 88.975 26.25C88.825 26.4167 88.5833 26.5 88.25 26.5H86.15C85.9666 26.5 85.8083 26.4333 85.675 26.3C85.5416 26.1667 85.475 26.0083 85.475 25.825C85.475 25.7417 85.5 25.65 85.55 25.55L91.275 17.575L85.8 9.95C85.75 9.85 85.725 9.75833 85.725 9.675C85.725 9.49167 85.7916 9.33333 85.925 9.2C86.0583 9.06667 86.2166 9 86.4 9H88.5C88.8333 9 89.075 9.08333 89.225 9.25C89.375 9.41667 89.4833 9.54167 89.55 9.625L93.325 14.9L97.075 9.625C97.1416 9.54167 97.25 9.41667 97.4 9.25C97.55 9.08333 97.7916 9 98.125 9H100.225C100.408 9 100.567 9.06667 100.7 9.2C100.833 9.33333 100.9 9.49167 100.9 9.675C100.9 9.75833 100.875 9.85 100.825 9.95L95.3 17.675L100.975 25.55C101.025 25.65 101.05 25.7417 101.05 25.825C101.05 26.0083 100.983 26.1667 100.85 26.3C100.717 26.4333 100.558 26.5 100.375 26.5H98.275Z" fill="#222222"/>
<path d="M103.131 16.7C103.197 16.35 103.347 15.975 103.581 15.575C103.831 15.175 104.172 14.8 104.606 14.45C105.056 14.1 105.597 13.8167 106.231 13.6C106.881 13.3667 107.631 13.25 108.481 13.25C109.331 13.25 110.097 13.3667 110.781 13.6C111.464 13.8167 112.047 14.1417 112.531 14.575C113.031 15.0083 113.414 15.5583 113.681 16.225C113.947 16.875 114.081 17.625 114.081 18.475V25.825C114.081 26.0083 114.014 26.1667 113.881 26.3C113.747 26.4333 113.589 26.5 113.406 26.5H111.506C111.322 26.5 111.164 26.4333 111.031 26.3C110.897 26.1667 110.831 26.0083 110.831 25.825V25C110.481 25.4833 109.972 25.9 109.306 26.25C108.656 26.5833 107.822 26.75 106.806 26.75C106.089 26.75 105.447 26.6583 104.881 26.475C104.314 26.275 103.839 26 103.456 25.65C103.072 25.3 102.772 24.8917 102.556 24.425C102.356 23.9417 102.256 23.4167 102.256 22.85C102.256 21.7 102.664 20.8 103.481 20.15C104.297 19.5 105.389 19.0583 106.756 18.825L110.831 18.125C110.831 17.4417 110.606 16.9583 110.156 16.675C109.706 16.3917 109.147 16.25 108.481 16.25C108.064 16.25 107.739 16.3083 107.506 16.425C107.272 16.5417 107.047 16.7 106.831 16.9C106.681 17.0333 106.539 17.125 106.406 17.175C106.289 17.225 106.156 17.25 106.006 17.25H103.681C103.514 17.25 103.372 17.2 103.256 17.1C103.139 17 103.097 16.8667 103.131 16.7ZM107.306 23.75C107.872 23.75 108.372 23.675 108.806 23.525C109.256 23.3583 109.631 23.1417 109.931 22.875C110.231 22.6083 110.456 22.3083 110.606 21.975C110.756 21.6417 110.831 21.3 110.831 20.95V20.7L107.431 21.3C106.747 21.4167 106.256 21.5917 105.956 21.825C105.656 22.0417 105.506 22.3417 105.506 22.725C105.506 23.075 105.681 23.3333 106.031 23.5C106.397 23.6667 106.822 23.75 107.306 23.75Z" fill="#222222"/>
<path d="M124.438 26.75C123.922 26.75 123.455 26.7 123.038 26.6C122.638 26.5 122.28 26.375 121.963 26.225C121.663 26.075 121.405 25.9167 121.188 25.75C120.972 25.5667 120.797 25.4 120.663 25.25V30.575C120.663 30.7583 120.597 30.9167 120.463 31.05C120.33 31.1833 120.172 31.25 119.988 31.25H118.088C117.905 31.25 117.747 31.1833 117.613 31.05C117.48 30.9167 117.413 30.7583 117.413 30.575V14.175C117.413 13.9917 117.48 13.8333 117.613 13.7C117.747 13.5667 117.905 13.5 118.088 13.5H119.988C120.172 13.5 120.33 13.5667 120.463 13.7C120.597 13.8333 120.663 13.9917 120.663 14.175V14.75C120.797 14.6 120.972 14.4417 121.188 14.275C121.405 14.0917 121.663 13.925 121.963 13.775C122.28 13.625 122.638 13.5 123.038 13.4C123.455 13.3 123.922 13.25 124.438 13.25C125.272 13.25 126.022 13.4167 126.688 13.75C127.372 14.0667 127.947 14.5 128.413 15.05C128.897 15.5833 129.272 16.2083 129.538 16.925C129.822 17.625 129.98 18.3583 130.013 19.125C130.03 19.375 130.038 19.6667 130.038 20C130.038 20.3333 130.03 20.625 130.013 20.875C129.98 21.6417 129.822 22.3833 129.538 23.1C129.272 23.8 128.897 24.425 128.413 24.975C127.947 25.5083 127.372 25.9417 126.688 26.275C126.022 26.5917 125.272 26.75 124.438 26.75ZM126.763 20.7C126.813 20.2333 126.813 19.7667 126.763 19.3C126.663 18.2167 126.33 17.4417 125.763 16.975C125.197 16.4917 124.505 16.25 123.688 16.25C122.872 16.25 122.18 16.4917 121.613 16.975C121.063 17.4583 120.747 18.15 120.663 19.05C120.63 19.3 120.613 19.6167 120.613 20C120.613 20.3833 120.63 20.7 120.663 20.95C120.747 21.8167 121.063 22.5 121.613 23C122.18 23.5 122.872 23.75 123.688 23.75C124.505 23.75 125.197 23.5167 125.763 23.05C126.33 22.5667 126.663 21.7833 126.763 20.7Z" fill="#222222"/>
<path d="M144.267 21.45C144.267 22.2 144.125 22.8917 143.842 23.525C143.575 24.1417 143.2 24.675 142.717 25.125C142.234 25.5583 141.65 25.9 140.967 26.15C140.284 26.3833 139.534 26.5 138.717 26.5H133.567C133.384 26.5 133.225 26.4333 133.092 26.3C132.959 26.1667 132.892 26.0083 132.892 25.825V14.175C132.892 13.9917 132.959 13.8333 133.092 13.7C133.225 13.5667 133.384 13.5 133.567 13.5H135.467C135.65 13.5 135.809 13.5667 135.942 13.7C136.075 13.8333 136.142 13.9917 136.142 14.175V16.4H138.717C139.534 16.4 140.284 16.525 140.967 16.775C141.65 17.0083 142.234 17.35 142.717 17.8C143.2 18.2333 143.575 18.7667 143.842 19.4C144.125 20.0167 144.267 20.7 144.267 21.45ZM136.142 23.5H138.292C138.709 23.5 139.084 23.475 139.417 23.425C139.767 23.3583 140.067 23.25 140.317 23.1C140.567 22.95 140.759 22.7417 140.892 22.475C141.025 22.2083 141.092 21.8667 141.092 21.45C141.092 21.0333 141.025 20.6917 140.892 20.425C140.759 20.1583 140.567 19.95 140.317 19.8C140.067 19.65 139.767 19.55 139.417 19.5C139.084 19.4333 138.709 19.4 138.292 19.4H136.142V23.5Z" fill="#222222"/>
<path d="M149.985 21.9V25.825C149.985 26.0083 149.918 26.1667 149.785 26.3C149.651 26.4333 149.493 26.5 149.31 26.5H147.41C147.226 26.5 147.068 26.4333 146.935 26.3C146.801 26.1667 146.735 26.0083 146.735 25.825V14.175C146.735 13.9917 146.801 13.8333 146.935 13.7C147.068 13.5667 147.226 13.5 147.41 13.5H149.31C149.493 13.5 149.651 13.5667 149.785 13.7C149.918 13.8333 149.985 13.9917 149.985 14.175V18.125L154.585 13.925C154.685 13.8417 154.81 13.75 154.96 13.65C155.126 13.55 155.326 13.5 155.56 13.5H157.935C158.101 13.5 158.243 13.5583 158.36 13.675C158.476 13.7917 158.535 13.9333 158.535 14.1C158.535 14.1833 158.518 14.2667 158.485 14.35C158.468 14.4167 158.393 14.5 158.26 14.6L152.435 19.875L158.81 25.425C158.91 25.525 158.976 25.6083 159.01 25.675C159.043 25.7417 159.06 25.8167 159.06 25.9C159.06 26.0667 159.001 26.2083 158.885 26.325C158.768 26.4417 158.626 26.5 158.46 26.5H155.81C155.56 26.5 155.343 26.45 155.16 26.35C154.993 26.25 154.868 26.1583 154.785 26.075L149.985 21.9Z" fill="#222222"/>
<path d="M165.912 13.25C166.829 13.25 167.654 13.3917 168.387 13.675C169.137 13.9583 169.779 14.35 170.312 14.85C170.862 15.35 171.295 15.9333 171.612 16.6C171.945 17.2667 172.137 17.9833 172.187 18.75C172.204 18.9 172.212 19.0917 172.212 19.325C172.212 19.5583 172.212 19.7917 172.212 20.025C172.212 20.2583 172.212 20.4917 172.212 20.725C172.212 20.9417 172.204 21.125 172.187 21.275C172.12 22.0417 171.929 22.7583 171.612 23.425C171.295 24.0917 170.862 24.675 170.312 25.175C169.779 25.6583 169.137 26.0417 168.387 26.325C167.654 26.6083 166.829 26.75 165.912 26.75C164.995 26.75 164.162 26.6083 163.412 26.325C162.679 26.0417 162.037 25.6583 161.487 25.175C160.954 24.675 160.529 24.0917 160.212 23.425C159.895 22.7583 159.704 22.0417 159.637 21.275C159.62 21.125 159.604 20.9417 159.587 20.725C159.587 20.4917 159.587 20.2583 159.587 20.025C159.587 19.7917 159.587 19.5583 159.587 19.325C159.604 19.0917 159.62 18.9 159.637 18.75C159.687 17.9833 159.87 17.2667 160.187 16.6C160.52 15.9333 160.954 15.35 161.487 14.85C162.037 14.35 162.679 13.9583 163.412 13.675C164.162 13.3917 164.995 13.25 165.912 13.25ZM168.937 18.875C168.887 18.3583 168.762 17.9333 168.562 17.6C168.379 17.25 168.145 16.975 167.862 16.775C167.579 16.575 167.27 16.4417 166.937 16.375C166.604 16.2917 166.262 16.25 165.912 16.25C165.562 16.25 165.22 16.2917 164.887 16.375C164.554 16.4417 164.245 16.575 163.962 16.775C163.679 16.975 163.437 17.25 163.237 17.6C163.054 17.9333 162.937 18.3583 162.887 18.875C162.87 19.0083 162.854 19.175 162.837 19.375C162.837 19.575 162.837 19.7833 162.837 20C162.837 20.2167 162.837 20.4333 162.837 20.65C162.854 20.85 162.87 21.0083 162.887 21.125C162.937 21.6417 163.054 22.075 163.237 22.425C163.437 22.7583 163.679 23.025 163.962 23.225C164.245 23.425 164.554 23.5667 164.887 23.65C165.22 23.7167 165.562 23.75 165.912 23.75C166.262 23.75 166.604 23.7167 166.937 23.65C167.27 23.5667 167.579 23.425 167.862 23.225C168.145 23.025 168.379 22.7583 168.562 22.425C168.762 22.075 168.887 21.6417 168.937 21.125C168.954 21.0083 168.962 20.85 168.962 20.65C168.962 20.4333 168.962 20.2167 168.962 20C168.962 19.7833 168.962 19.575 168.962 19.375C168.962 19.175 168.954 19.0083 168.937 18.875Z" fill="#222222"/>
<path d="M183.63 17.425C183.63 17.0417 183.513 16.7833 183.28 16.65C183.047 16.5 182.655 16.425 182.105 16.425H178.305V18.425H182.105C182.655 18.425 183.047 18.3583 183.28 18.225C183.513 18.075 183.63 17.8083 183.63 17.425ZM178.305 23.575H182.255C182.805 23.575 183.213 23.5 183.48 23.35C183.747 23.1833 183.88 22.8917 183.88 22.475C183.88 22.0583 183.747 21.7667 183.48 21.6C183.213 21.4333 182.805 21.35 182.255 21.35H178.305V23.575ZM175.555 26.5C175.422 26.5 175.305 26.45 175.205 26.35C175.105 26.25 175.055 26.1333 175.055 26V14C175.055 13.8667 175.105 13.75 175.205 13.65C175.305 13.55 175.422 13.5 175.555 13.5H182.58C183.213 13.5 183.797 13.5917 184.33 13.775C184.863 13.9417 185.313 14.1833 185.68 14.5C186.063 14.8 186.355 15.175 186.555 15.625C186.772 16.0583 186.88 16.5417 186.88 17.075C186.88 17.7917 186.763 18.35 186.53 18.75C186.297 19.15 185.997 19.475 185.63 19.725C186.197 20.075 186.588 20.5 186.805 21C187.022 21.5 187.13 22.075 187.13 22.725C187.13 23.3417 187.022 23.8917 186.805 24.375C186.605 24.8417 186.322 25.2333 185.955 25.55C185.588 25.8667 185.155 26.1083 184.655 26.275C184.155 26.425 183.605 26.5 183.005 26.5H175.555Z" fill="#222222"/>
<path d="M95.15 39.5C95.4167 39.5 95.6167 39.575 95.75 39.725C95.8833 39.8583 96 40.0667 96.1 40.35L102.225 56.15C102.242 56.2 102.25 56.2583 102.25 56.325C102.25 56.5083 102.183 56.6667 102.05 56.8C101.917 56.9333 101.758 57 101.575 57H99.775C99.4417 57 99.2083 56.9333 99.075 56.8C98.9417 56.65 98.85 56.5083 98.8 56.375L97.725 53.6H89.825L88.75 56.375C88.7 56.5083 88.6083 56.65 88.475 56.8C88.3417 56.9333 88.1083 57 87.775 57H85.975C85.7917 57 85.6333 56.9333 85.5 56.8C85.3667 56.6667 85.3 56.5083 85.3 56.325C85.3 56.2583 85.3083 56.2 85.325 56.15L91.45 40.35C91.55 40.0667 91.6667 39.8583 91.8 39.725C91.9333 39.575 92.1333 39.5 92.4 39.5H95.15ZM96.525 50.475L93.775 43.35L91.025 50.475H96.525Z" fill="#222222"/>
<path d="M112.854 47.925C112.854 47.5417 112.737 47.2833 112.504 47.15C112.27 47 111.879 46.925 111.329 46.925H107.529V48.925H111.329C111.879 48.925 112.27 48.8583 112.504 48.725C112.737 48.575 112.854 48.3083 112.854 47.925ZM107.529 54.075H111.479C112.029 54.075 112.437 54 112.704 53.85C112.97 53.6833 113.104 53.3917 113.104 52.975C113.104 52.5583 112.97 52.2667 112.704 52.1C112.437 51.9333 112.029 51.85 111.479 51.85H107.529V54.075ZM104.779 57C104.645 57 104.529 56.95 104.429 56.85C104.329 56.75 104.279 56.6333 104.279 56.5V44.5C104.279 44.3667 104.329 44.25 104.429 44.15C104.529 44.05 104.645 44 104.779 44H111.804C112.437 44 113.02 44.0917 113.554 44.275C114.087 44.4417 114.537 44.6833 114.904 45C115.287 45.3 115.579 45.675 115.779 46.125C115.995 46.5583 116.104 47.0417 116.104 47.575C116.104 48.2917 115.987 48.85 115.754 49.25C115.52 49.65 115.22 49.975 114.854 50.225C115.42 50.575 115.812 51 116.029 51.5C116.245 52 116.354 52.575 116.354 53.225C116.354 53.8417 116.245 54.3917 116.029 54.875C115.829 55.3417 115.545 55.7333 115.179 56.05C114.812 56.3667 114.379 56.6083 113.879 56.775C113.379 56.925 112.829 57 112.229 57H104.779Z" fill="#222222"/>
<path d="M129.996 44C130.179 44 130.337 44.0667 130.471 44.2C130.604 44.3333 130.671 44.4917 130.671 44.675V46.325C130.671 46.5083 130.604 46.6667 130.471 46.8C130.337 46.9333 130.179 47 129.996 47H125.896V56.325C125.896 56.5083 125.829 56.6667 125.696 56.8C125.562 56.9333 125.404 57 125.221 57H123.321C123.137 57 122.979 56.9333 122.846 56.8C122.712 56.6667 122.646 56.5083 122.646 56.325V47H118.546C118.362 47 118.204 46.9333 118.071 46.8C117.937 46.6667 117.871 46.5083 117.871 46.325V44.675C117.871 44.4917 117.937 44.3333 118.071 44.2C118.204 44.0667 118.362 44 118.546 44H129.996Z" fill="#222222"/>
<path d="M138.324 43.75C139.241 43.75 140.066 43.8917 140.799 44.175C141.549 44.4583 142.191 44.85 142.724 45.35C143.274 45.85 143.707 46.4333 144.024 47.1C144.357 47.7667 144.549 48.4833 144.599 49.25C144.616 49.4 144.624 49.5917 144.624 49.825C144.624 50.0583 144.624 50.2917 144.624 50.525C144.624 50.7583 144.624 50.9917 144.624 51.225C144.624 51.4417 144.616 51.625 144.599 51.775C144.532 52.5417 144.341 53.2583 144.024 53.925C143.707 54.5917 143.274 55.175 142.724 55.675C142.191 56.1583 141.549 56.5417 140.799 56.825C140.066 57.1083 139.241 57.25 138.324 57.25C137.407 57.25 136.574 57.1083 135.824 56.825C135.091 56.5417 134.449 56.1583 133.899 55.675C133.366 55.175 132.941 54.5917 132.624 53.925C132.307 53.2583 132.116 52.5417 132.049 51.775C132.032 51.625 132.016 51.4417 131.999 51.225C131.999 50.9917 131.999 50.7583 131.999 50.525C131.999 50.2917 131.999 50.0583 131.999 49.825C132.016 49.5917 132.032 49.4 132.049 49.25C132.099 48.4833 132.282 47.7667 132.599 47.1C132.932 46.4333 133.366 45.85 133.899 45.35C134.449 44.85 135.091 44.4583 135.824 44.175C136.574 43.8917 137.407 43.75 138.324 43.75ZM141.349 49.375C141.299 48.8583 141.174 48.4333 140.974 48.1C140.791 47.75 140.557 47.475 140.274 47.275C139.991 47.075 139.682 46.9417 139.349 46.875C139.016 46.7917 138.674 46.75 138.324 46.75C137.974 46.75 137.632 46.7917 137.299 46.875C136.966 46.9417 136.657 47.075 136.374 47.275C136.091 47.475 135.849 47.75 135.649 48.1C135.466 48.4333 135.349 48.8583 135.299 49.375C135.282 49.5083 135.266 49.675 135.249 49.875C135.249 50.075 135.249 50.2833 135.249 50.5C135.249 50.7167 135.249 50.9333 135.249 51.15C135.266 51.35 135.282 51.5083 135.299 51.625C135.349 52.1417 135.466 52.575 135.649 52.925C135.849 53.2583 136.091 53.525 136.374 53.725C136.657 53.925 136.966 54.0667 137.299 54.15C137.632 54.2167 137.974 54.25 138.324 54.25C138.674 54.25 139.016 54.2167 139.349 54.15C139.682 54.0667 139.991 53.925 140.274 53.725C140.557 53.525 140.791 53.2583 140.974 52.925C141.174 52.575 141.299 52.1417 141.349 51.625C141.366 51.5083 141.374 51.35 141.374 51.15C141.374 50.9333 141.374 50.7167 141.374 50.5C141.374 50.2833 141.374 50.075 141.374 49.875C141.374 49.675 141.366 49.5083 141.349 49.375Z" fill="#222222"/>
<path d="M150.092 49.625C150.059 49.875 150.042 50.1667 150.042 50.5C150.042 50.8333 150.059 51.125 150.092 51.375C150.142 51.8917 150.259 52.3333 150.442 52.7C150.626 53.0667 150.851 53.3667 151.117 53.6C151.401 53.8167 151.709 53.9833 152.042 54.1C152.376 54.2 152.717 54.25 153.067 54.25C153.484 54.25 153.834 54.2167 154.117 54.15C154.401 54.0833 154.642 53.9917 154.842 53.875C155.042 53.7417 155.209 53.6 155.342 53.45C155.492 53.2833 155.634 53.1 155.767 52.9C155.867 52.75 155.984 52.6 156.117 52.45C156.251 52.3 156.409 52.225 156.592 52.225H158.492C158.676 52.225 158.834 52.2917 158.967 52.425C159.117 52.5583 159.184 52.7167 159.167 52.9C159.151 53.25 159.026 53.675 158.792 54.175C158.559 54.675 158.192 55.1583 157.692 55.625C157.209 56.075 156.584 56.4583 155.817 56.775C155.05 57.0917 154.134 57.25 153.067 57.25C152.151 57.25 151.326 57.1 150.592 56.8C149.859 56.4833 149.217 56.0667 148.667 55.55C148.134 55.0167 147.709 54.4083 147.392 53.725C147.092 53.025 146.909 52.2917 146.842 51.525C146.809 51.225 146.792 50.8917 146.792 50.525C146.792 50.1583 146.809 49.8167 146.842 49.5C146.892 48.7333 147.076 48 147.392 47.3C147.709 46.6 148.134 45.9917 148.667 45.475C149.201 44.9417 149.834 44.525 150.567 44.225C151.317 43.9083 152.151 43.75 153.067 43.75C154.134 43.75 155.05 43.9083 155.817 44.225C156.584 44.5417 157.209 44.9333 157.692 45.4C158.192 45.85 158.559 46.325 158.792 46.825C159.026 47.325 159.151 47.75 159.167 48.1C159.184 48.2833 159.117 48.4417 158.967 48.575C158.834 48.7083 158.676 48.775 158.492 48.775H156.592C156.409 48.775 156.251 48.7 156.117 48.55C155.984 48.4 155.867 48.25 155.767 48.1C155.634 47.9 155.492 47.725 155.342 47.575C155.209 47.4083 155.042 47.2667 154.842 47.15C154.642 47.0167 154.401 46.9167 154.117 46.85C153.834 46.7833 153.484 46.75 153.067 46.75C152.717 46.75 152.376 46.8083 152.042 46.925C151.709 47.025 151.401 47.1917 151.117 47.425C150.851 47.6417 150.626 47.9333 150.442 48.3C150.259 48.6667 150.142 49.1083 150.092 49.625Z" fill="#222222"/>
<path d="M173.571 44C173.754 44 173.913 44.0667 174.046 44.2C174.179 44.3333 174.246 44.4917 174.246 44.675V56.325C174.246 56.5083 174.179 56.6667 174.046 56.8C173.913 56.9333 173.754 57 173.571 57H171.671C171.488 57 171.329 56.9333 171.196 56.8C171.063 56.6667 170.996 56.5083 170.996 56.325V47H165.146V56.325C165.146 56.5083 165.079 56.6667 164.946 56.8C164.813 56.9333 164.654 57 164.471 57H162.571C162.388 57 162.229 56.9333 162.096 56.8C161.963 56.6667 161.896 56.5083 161.896 56.325V44.675C161.896 44.4917 161.963 44.3333 162.096 44.2C162.229 44.0667 162.388 44 162.571 44H173.571Z" fill="#222222"/>
<path d="M177.042 50.5C177.042 49.5667 177.183 48.6917 177.467 47.875C177.75 47.0417 178.158 46.325 178.692 45.725C179.225 45.1083 179.867 44.625 180.617 44.275C181.383 43.925 182.233 43.75 183.167 43.75C184.1 43.75 184.942 43.925 185.692 44.275C186.458 44.6083 187.108 45.0667 187.642 45.65C188.175 46.2167 188.583 46.8917 188.867 47.675C189.167 48.4417 189.317 49.25 189.317 50.1V51.225C189.317 51.4083 189.25 51.5667 189.117 51.7C188.983 51.8333 188.825 51.9 188.642 51.9H180.292C180.292 52.2833 180.367 52.625 180.517 52.925C180.683 53.2083 180.9 53.45 181.167 53.65C181.433 53.85 181.742 54 182.092 54.1C182.442 54.2 182.8 54.25 183.167 54.25C183.7 54.25 184.133 54.2 184.467 54.1C184.8 53.9833 185.075 53.8417 185.292 53.675C185.475 53.5417 185.625 53.45 185.742 53.4C185.858 53.35 186.017 53.325 186.217 53.325H188.217C188.4 53.325 188.558 53.3917 188.692 53.525C188.842 53.6583 188.908 53.8167 188.892 54C188.875 54.2333 188.742 54.5333 188.492 54.9C188.258 55.2667 187.9 55.625 187.417 55.975C186.933 56.325 186.333 56.625 185.617 56.875C184.917 57.125 184.1 57.25 183.167 57.25C182.233 57.25 181.383 57.0917 180.617 56.775C179.867 56.4417 179.225 55.975 178.692 55.375C178.158 54.775 177.75 54.0667 177.467 53.25C177.183 52.4167 177.042 51.5 177.042 50.5ZM183.167 46.75C182.683 46.75 182.267 46.825 181.917 46.975C181.583 47.1083 181.3 47.2917 181.067 47.525C180.833 47.7417 180.65 47.9917 180.517 48.275C180.4 48.5417 180.325 48.8 180.292 49.05H185.942C185.908 48.8 185.842 48.5417 185.742 48.275C185.658 47.9917 185.508 47.7417 185.292 47.525C185.092 47.2917 184.817 47.1083 184.467 46.975C184.133 46.825 183.7 46.75 183.167 46.75Z" fill="#222222"/>
<path d="M195.297 52.4V56.325C195.297 56.5083 195.231 56.6667 195.097 56.8C194.964 56.9333 194.806 57 194.622 57H192.722C192.539 57 192.381 56.9333 192.247 56.8C192.114 56.6667 192.047 56.5083 192.047 56.325V44.675C192.047 44.4917 192.114 44.3333 192.247 44.2C192.381 44.0667 192.539 44 192.722 44H194.622C194.806 44 194.964 44.0667 195.097 44.2C195.231 44.3333 195.297 44.4917 195.297 44.675V48.625L199.897 44.425C199.997 44.3417 200.122 44.25 200.272 44.15C200.439 44.05 200.639 44 200.872 44H203.247C203.414 44 203.556 44.0583 203.672 44.175C203.789 44.2917 203.847 44.4333 203.847 44.6C203.847 44.6833 203.831 44.7667 203.797 44.85C203.781 44.9167 203.706 45 203.572 45.1L197.747 50.375L204.122 55.925C204.222 56.025 204.289 56.1083 204.322 56.175C204.356 56.2417 204.372 56.3167 204.372 56.4C204.372 56.5667 204.314 56.7083 204.197 56.825C204.081 56.9417 203.939 57 203.772 57H201.122C200.872 57 200.656 56.95 200.472 56.85C200.306 56.75 200.181 56.6583 200.097 56.575L195.297 52.4Z" fill="#222222"/>
<path d="M217.154 44C217.337 44 217.496 44.0667 217.629 44.2C217.762 44.3333 217.829 44.4917 217.829 44.675V46.325C217.829 46.5083 217.762 46.6667 217.629 46.8C217.496 46.9333 217.337 47 217.154 47H213.054V56.325C213.054 56.5083 212.987 56.6667 212.854 56.8C212.721 56.9333 212.562 57 212.379 57H210.479C210.296 57 210.137 56.9333 210.004 56.8C209.871 56.6667 209.804 56.5083 209.804 56.325V47H205.704C205.521 47 205.362 46.9333 205.229 46.8C205.096 46.6667 205.029 46.5083 205.029 46.325V44.675C205.029 44.4917 205.096 44.3333 205.229 44.2C205.362 44.0667 205.521 44 205.704 44H217.154Z" fill="#222222"/>
<path d="M226.978 57.25C226.461 57.25 225.994 57.2 225.578 57.1C225.178 57 224.819 56.875 224.503 56.725C224.203 56.575 223.944 56.4167 223.728 56.25C223.511 56.0667 223.336 55.9 223.203 55.75V61.075C223.203 61.2583 223.136 61.4167 223.003 61.55C222.869 61.6833 222.711 61.75 222.528 61.75H220.628C220.444 61.75 220.286 61.6833 220.153 61.55C220.019 61.4167 219.953 61.2583 219.953 61.075V44.675C219.953 44.4917 220.019 44.3333 220.153 44.2C220.286 44.0667 220.444 44 220.628 44H222.528C222.711 44 222.869 44.0667 223.003 44.2C223.136 44.3333 223.203 44.4917 223.203 44.675V45.25C223.336 45.1 223.511 44.9417 223.728 44.775C223.944 44.5917 224.203 44.425 224.503 44.275C224.819 44.125 225.178 44 225.578 43.9C225.994 43.8 226.461 43.75 226.978 43.75C227.811 43.75 228.561 43.9167 229.228 44.25C229.911 44.5667 230.486 45 230.953 45.55C231.436 46.0833 231.811 46.7083 232.078 47.425C232.361 48.125 232.519 48.8583 232.553 49.625C232.569 49.875 232.578 50.1667 232.578 50.5C232.578 50.8333 232.569 51.125 232.553 51.375C232.519 52.1417 232.361 52.8833 232.078 53.6C231.811 54.3 231.436 54.925 230.953 55.475C230.486 56.0083 229.911 56.4417 229.228 56.775C228.561 57.0917 227.811 57.25 226.978 57.25ZM229.303 51.2C229.353 50.7333 229.353 50.2667 229.303 49.8C229.203 48.7167 228.869 47.9417 228.303 47.475C227.736 46.9917 227.044 46.75 226.228 46.75C225.411 46.75 224.719 46.9917 224.153 47.475C223.603 47.9583 223.286 48.65 223.203 49.55C223.169 49.8 223.153 50.1167 223.153 50.5C223.153 50.8833 223.169 51.2 223.203 51.45C223.286 52.3167 223.603 53 224.153 53.5C224.719 54 225.411 54.25 226.228 54.25C227.044 54.25 227.736 54.0167 228.303 53.55C228.869 53.0667 229.203 52.2833 229.303 51.2Z" fill="#222222"/>
<defs>
<clipPath id="clip0">
<rect width="72" height="62" fill="white"/>
</clipPath>
</defs>
</svg>
