<svg width="100" height="31" viewBox="0 0 100 31" fill="none" xmlns="http://www.w3.org/2000/svg">
<g clip-path="url(#clip0)">
<g style="mix-blend-mode:darken">
<g style="mix-blend-mode:darken">
<g style="mix-blend-mode:darken">
<path d="M36.2311 31H30.6932C30.6501 31.0004 30.6077 30.9896 30.5704 30.9688C30.533 30.9479 30.502 30.9178 30.4804 30.8815L15.1767 5.10344C15.1637 5.08112 15.1569 5.05591 15.1569 5.03025C15.1569 5.00459 15.1637 4.97938 15.1767 4.95706V4.95173L18.0256 0.118499C18.0466 0.0814494 18.0775 0.0505671 18.1149 0.0290624C18.1523 0.00755768 18.195 -0.00378418 18.2384 -0.00378418C18.2818 -0.00378418 18.3245 0.00755768 18.3619 0.0290624C18.3993 0.0505671 18.4301 0.0814494 18.4512 0.118499L36.447 30.6373C36.4694 30.6741 36.4814 30.7159 36.4816 30.7587C36.4818 30.8014 36.4704 30.8435 36.4484 30.8805C36.4264 30.9174 36.3947 30.948 36.3564 30.969C36.3182 30.99 36.275 31.0007 36.2311 31Z" fill="#484746"/>
</g>
<g style="mix-blend-mode:darken">
<path d="M15.8588 14.0358L5.88087 30.8803C5.85901 30.9166 5.82781 30.9465 5.79037 30.9673C5.75293 30.9881 5.71056 30.999 5.66747 30.9989H0.246841C0.203599 30.999 0.161092 30.988 0.123597 30.967C0.0861019 30.946 0.0549404 30.9158 0.0332477 30.8793C0.0115551 30.8428 9.63598e-05 30.8014 2.4303e-05 30.7593C-4.77535e-05 30.7171 0.0112694 30.6757 0.0328373 30.6392L12.6907 9.16814C12.7125 9.13205 12.7436 9.10205 12.7809 9.08128C12.8182 9.06044 12.8605 9.04947 12.9035 9.04947C12.9465 9.04947 12.9887 9.06044 13.026 9.08128C13.0634 9.10205 13.0945 9.13205 13.1163 9.16814L15.857 13.7946C15.8789 13.8311 15.8906 13.8726 15.8909 13.9149C15.8912 13.9573 15.8801 13.9989 15.8588 14.0358Z" fill="#484746"/>
</g>
<g style="mix-blend-mode:darken">
<path d="M25.9875 31.0001H10.5731C10.5297 31 10.4871 30.9888 10.4496 30.9675C10.412 30.9463 10.3808 30.9157 10.3592 30.879C10.3377 30.8423 10.3264 30.8007 10.3266 30.7584C10.3268 30.716 10.3384 30.6745 10.3604 30.638L17.9654 18.053C17.9872 18.0168 18.0183 17.9869 18.0557 17.966C18.093 17.9452 18.1352 17.9343 18.1782 17.9343C18.2212 17.9343 18.2635 17.9452 18.3008 17.966C18.3381 17.9869 18.3692 18.0168 18.391 18.053L26.1979 30.6374C26.2211 30.6736 26.2338 30.7152 26.2348 30.7578C26.2358 30.8004 26.2249 30.8426 26.2034 30.8797C26.1818 30.9169 26.1504 30.9476 26.1124 30.9688C26.0745 30.9899 26.0313 31.0007 25.9875 31.0001Z" fill="#484746"/>
</g>
</g>
</g>
<path d="M45.4783 11.7869C45.3421 11.7869 45.2435 11.7544 45.1822 11.6894C45.121 11.6244 45.0767 11.5756 45.0495 11.5432L43.4264 9.38778L41.8135 11.5432C41.7862 11.5756 41.742 11.6244 41.6808 11.6894C41.6195 11.7544 41.5208 11.7869 41.3847 11.7869H40.5272C40.4523 11.7869 40.3877 11.761 40.3333 11.7089C40.2788 11.6569 40.2516 11.5952 40.2516 11.5236C40.2516 11.4911 40.2618 11.4554 40.2822 11.4164L42.6199 8.3052L40.3843 5.3306C40.3638 5.29159 40.3537 5.25582 40.3537 5.22332C40.3537 5.15179 40.3809 5.09003 40.4353 5.03801C40.4898 4.986 40.5544 4.95999 40.6293 4.95999H41.4868C41.6229 4.95999 41.7216 4.9925 41.7828 5.05752C41.8441 5.12254 41.8883 5.1713 41.9155 5.20381L43.457 7.26168L44.9882 5.20381C45.0155 5.1713 45.0597 5.12254 45.121 5.05752C45.1822 4.9925 45.2809 4.95999 45.417 4.95999H46.2745C46.3494 4.95999 46.414 4.986 46.4685 5.03801C46.523 5.09003 46.5501 5.15179 46.5501 5.22332C46.5501 5.25582 46.5399 5.29159 46.5196 5.3306L44.2635 8.3442L46.5808 11.4164C46.6012 11.4554 46.6114 11.4911 46.6114 11.5236C46.6114 11.5952 46.5842 11.6569 46.5297 11.7089C46.4753 11.761 46.4106 11.7869 46.3358 11.7869H45.4783Z" fill="#484746"/>
<path d="M47.461 7.96385C47.4882 7.82732 47.5495 7.68106 47.6448 7.52501C47.7469 7.36896 47.8864 7.22264 48.0633 7.08611C48.247 6.94959 48.4682 6.83904 48.7269 6.75454C48.9923 6.66352 49.2986 6.61801 49.6456 6.61801C49.9927 6.61801 50.3058 6.66352 50.5848 6.75454C50.8638 6.83904 51.102 6.96583 51.2994 7.13491C51.5035 7.30392 51.6601 7.5185 51.7689 7.77859C51.8779 8.03217 51.9323 8.32475 51.9323 8.65632V11.5236C51.9323 11.5952 51.9051 11.6569 51.8506 11.709C51.7962 11.761 51.7315 11.787 51.6567 11.787H50.8808C50.806 11.787 50.7413 11.761 50.6869 11.709C50.6325 11.6569 50.6052 11.5952 50.6052 11.5236V11.2018C50.4623 11.3903 50.2547 11.5529 49.9825 11.6894C49.717 11.8195 49.3768 11.8845 48.9616 11.8845C48.669 11.8845 48.407 11.8488 48.1756 11.7772C47.9442 11.6992 47.7503 11.5919 47.5937 11.4554C47.4372 11.3189 47.3147 11.1596 47.2262 10.9775C47.1445 10.7889 47.1037 10.5842 47.1037 10.3631C47.1037 9.91443 47.2704 9.56332 47.604 9.30974C47.9374 9.05616 48.3831 8.88386 48.9413 8.79285L50.6052 8.5198C50.6052 8.2532 50.5133 8.06466 50.3296 7.95411C50.1458 7.84357 49.9179 7.78832 49.6456 7.78832C49.4755 7.78832 49.3428 7.81108 49.2475 7.85659C49.1522 7.90209 49.0603 7.96385 48.9719 8.0419C48.9106 8.09392 48.8528 8.1297 48.7983 8.14916C48.7507 8.16869 48.6962 8.17843 48.635 8.17843H47.6856C47.6175 8.17843 47.5597 8.15896 47.5121 8.1199C47.4644 8.0809 47.4474 8.02888 47.461 7.96385ZM49.1658 10.7142C49.3972 10.7142 49.6014 10.6849 49.7783 10.6264C49.9621 10.5614 50.1152 10.4768 50.2377 10.3728C50.3602 10.2688 50.4521 10.1518 50.5133 10.0217C50.5746 9.89167 50.6052 9.75837 50.6052 9.62185V9.52432L49.2169 9.75837C48.9379 9.80388 48.737 9.87214 48.6146 9.96322C48.4921 10.0477 48.4308 10.1648 48.4308 10.3143C48.4308 10.4509 48.5023 10.5516 48.6452 10.6166C48.7949 10.6817 48.9684 10.7142 49.1658 10.7142Z" fill="#484746"/>
<path d="M56.1618 11.8845C55.9508 11.8845 55.7603 11.865 55.5901 11.826C55.4267 11.787 55.2804 11.7382 55.1511 11.6797C55.0286 11.6212 54.9231 11.5594 54.8347 11.4944C54.7462 11.4229 54.6747 11.3579 54.6203 11.2993V13.3767C54.6203 13.4482 54.5931 13.51 54.5386 13.562C54.4842 13.614 54.4196 13.64 54.3447 13.64H53.5688C53.494 13.64 53.4293 13.614 53.3748 13.562C53.3204 13.51 53.2932 13.4482 53.2932 13.3767V6.97885C53.2932 6.9073 53.3204 6.84555 53.3748 6.79353C53.4293 6.74152 53.494 6.71554 53.5688 6.71554H54.3447C54.4196 6.71554 54.4842 6.74152 54.5386 6.79353C54.5931 6.84555 54.6203 6.9073 54.6203 6.97885V7.20317C54.6747 7.14464 54.7462 7.08289 54.8347 7.01785C54.9231 6.9463 55.0286 6.88133 55.1511 6.8228C55.2804 6.76427 55.4267 6.71554 55.5901 6.67648C55.7603 6.63748 55.9508 6.61801 56.1618 6.61801C56.5021 6.61801 56.8083 6.68299 57.0805 6.81306C57.3596 6.93657 57.5943 7.10564 57.7849 7.32016C57.9823 7.52823 58.1354 7.77208 58.2443 8.05164C58.36 8.32475 58.4247 8.61082 58.4382 8.9099C58.445 9.00743 58.4484 9.1212 58.4484 9.25121C58.4484 9.38129 58.445 9.49506 58.4382 9.59259C58.4247 9.89167 58.36 10.181 58.2443 10.4606C58.1354 10.7337 57.9823 10.9775 57.7849 11.1921C57.5943 11.4001 57.3596 11.5691 57.0805 11.6992C56.8083 11.8227 56.5021 11.8845 56.1618 11.8845ZM57.1111 9.52432C57.1316 9.34229 57.1316 9.1602 57.1111 8.97817C57.0703 8.55557 56.9342 8.2532 56.7028 8.07117C56.4714 7.88263 56.189 7.78832 55.8555 7.78832C55.522 7.78832 55.2396 7.88263 55.0082 8.07117C54.7836 8.25971 54.6543 8.52953 54.6203 8.88064C54.6067 8.97817 54.5999 9.10173 54.5999 9.25121C54.5999 9.40076 54.6067 9.52432 54.6203 9.62185C54.6543 9.95994 54.7836 10.2265 55.0082 10.4216C55.2396 10.6166 55.522 10.7142 55.8555 10.7142C56.189 10.7142 56.4714 10.6231 56.7028 10.4411C56.9342 10.2525 57.0703 9.94692 57.1111 9.52432Z" fill="#484746"/>
<path d="M64.2585 9.81688C64.2585 10.1095 64.2006 10.3793 64.0849 10.6264C63.9761 10.8669 63.8226 11.075 63.6258 11.2506C63.4283 11.4196 63.1899 11.5529 62.9107 11.6504C62.6319 11.7414 62.3257 11.7869 61.9922 11.7869H59.8892C59.8144 11.7869 59.7497 11.761 59.6953 11.7089C59.6409 11.6569 59.6136 11.5952 59.6136 11.5236V6.97883C59.6136 6.90728 59.6409 6.84553 59.6953 6.79351C59.7497 6.74149 59.8144 6.71552 59.8892 6.71552H60.6651C60.7399 6.71552 60.8046 6.74149 60.8591 6.79351C60.9135 6.84553 60.9407 6.90728 60.9407 6.97883V7.84683H61.9922C62.3257 7.84683 62.6319 7.89556 62.9107 7.99309C63.1899 8.08417 63.4283 8.2174 63.6258 8.39299C63.8226 8.562 63.9761 8.77007 64.0849 9.01714C64.2006 9.2577 64.2585 9.5243 64.2585 9.81688ZM60.9407 10.6166H61.8187C61.9888 10.6166 62.1419 10.6069 62.278 10.5874C62.4209 10.5614 62.5435 10.5191 62.6455 10.4606C62.7476 10.402 62.8259 10.3208 62.8803 10.2168C62.9346 10.1127 62.9623 9.97944 62.9623 9.81688C62.9623 9.65431 62.9346 9.52108 62.8803 9.41704C62.8259 9.313 62.7476 9.23172 62.6455 9.17319C62.5435 9.11467 62.4209 9.07567 62.278 9.05614C62.1419 9.03016 61.9888 9.01714 61.8187 9.01714H60.9407V10.6166Z" fill="#484746"/>
<path d="M66.5931 9.99246V11.5236C66.5931 11.5952 66.566 11.6569 66.5113 11.7089C66.4572 11.761 66.3925 11.7869 66.3176 11.7869H65.5415C65.4667 11.7869 65.4025 11.761 65.3478 11.7089C65.2931 11.6569 65.266 11.5952 65.266 11.5236V6.97883C65.266 6.90728 65.2931 6.84553 65.3478 6.79351C65.4025 6.74149 65.4667 6.71552 65.5415 6.71552H66.3176C66.3925 6.71552 66.4572 6.74149 66.5113 6.79351C66.566 6.84553 66.5931 6.90728 66.5931 6.97883V8.51978L68.4717 6.8813C68.5126 6.84875 68.5635 6.81304 68.6245 6.77398C68.6925 6.73498 68.7742 6.71552 68.8698 6.71552H69.8396C69.9075 6.71552 69.9654 6.73827 70.0132 6.78378C70.0604 6.82928 70.0843 6.88453 70.0843 6.94956C70.0843 6.98205 70.078 7.0146 70.0642 7.04709C70.0572 7.07307 70.0264 7.10562 69.9723 7.14462L67.5937 9.20246L70.1969 11.3676C70.2377 11.4066 70.2648 11.4391 70.2786 11.4651C70.2918 11.4911 70.2987 11.5204 70.2987 11.5529C70.2987 11.6179 70.2748 11.6732 70.2277 11.7187C70.1799 11.7642 70.122 11.7869 70.0541 11.7869H68.9717C68.8698 11.7869 68.7811 11.7675 68.7063 11.7285C68.6384 11.6894 68.5874 11.6537 68.5535 11.6211L66.5931 9.99246Z" fill="#484746"/>
<path d="M73.0969 6.61801C73.4711 6.61801 73.8082 6.67325 74.1076 6.7838C74.4138 6.89435 74.6755 7.04711 74.8937 7.24217C75.1182 7.43722 75.295 7.66476 75.4245 7.92485C75.5604 8.18494 75.639 8.4645 75.6591 8.76358C75.666 8.82211 75.6692 8.89688 75.6692 8.9879C75.6692 9.07892 75.6692 9.16999 75.6692 9.26101C75.6692 9.35203 75.6692 9.44304 75.6692 9.53406C75.6692 9.61863 75.666 9.69011 75.6591 9.74864C75.6321 10.0477 75.5535 10.3273 75.4245 10.5874C75.295 10.8475 75.1182 11.075 74.8937 11.2701C74.6755 11.4586 74.4138 11.6081 74.1076 11.7187C73.8082 11.8292 73.4711 11.8845 73.0969 11.8845C72.7226 11.8845 72.3824 11.8292 72.0761 11.7187C71.7767 11.6081 71.5145 11.4586 71.2899 11.2701C71.0723 11.075 70.8987 10.8475 70.7692 10.5874C70.6403 10.3273 70.5616 10.0477 70.5346 9.74864C70.5277 9.69011 70.5208 9.61863 70.5138 9.53406C70.5138 9.44304 70.5138 9.35203 70.5138 9.26101C70.5138 9.16999 70.5138 9.07892 70.5138 8.9879C70.5208 8.89688 70.5277 8.82211 70.5346 8.76358C70.5547 8.4645 70.6296 8.18494 70.7591 7.92485C70.895 7.66476 71.0723 7.43722 71.2899 7.24217C71.5145 7.04711 71.7767 6.89435 72.0761 6.7838C72.3824 6.67325 72.7226 6.61801 73.0969 6.61801ZM74.3321 8.81238C74.312 8.61082 74.2604 8.44503 74.1792 8.31495C74.1044 8.17843 74.0088 8.07117 73.8931 7.99311C73.7774 7.91511 73.6516 7.8631 73.5151 7.83706C73.3792 7.80457 73.2396 7.78832 73.0969 7.78832C72.9541 7.78832 72.8145 7.80457 72.6786 7.83706C72.5421 7.8631 72.4164 7.91511 72.3006 7.99311C72.1849 8.07117 72.0862 8.17843 72.0044 8.31495C71.9296 8.44503 71.8818 8.61082 71.8616 8.81238C71.8547 8.8644 71.8478 8.92937 71.8415 9.00743C71.8415 9.08543 71.8415 9.16671 71.8415 9.25121C71.8415 9.33578 71.8415 9.42029 71.8415 9.50479C71.8478 9.58285 71.8547 9.6446 71.8616 9.69011C71.8818 9.89167 71.9296 10.0607 72.0044 10.1973C72.0862 10.3273 72.1849 10.4313 72.3006 10.5094C72.4164 10.5874 72.5421 10.6426 72.6786 10.6752C72.8145 10.7011 72.9541 10.7142 73.0969 10.7142C73.2396 10.7142 73.3792 10.7011 73.5151 10.6752C73.6516 10.6426 73.7774 10.5874 73.8931 10.5094C74.0088 10.4313 74.1044 10.3273 74.1792 10.1973C74.2604 10.0607 74.312 9.89167 74.3321 9.69011C74.339 9.6446 74.3421 9.58285 74.3421 9.50479C74.3421 9.42029 74.3421 9.33578 74.3421 9.25121C74.3421 9.16671 74.3421 9.08543 74.3421 9.00743C74.3421 8.92937 74.339 8.8644 74.3321 8.81238Z" fill="#484746"/>
<path d="M80.3321 8.24667C80.3321 8.09712 80.2843 7.99637 80.1887 7.94436C80.0937 7.88583 79.934 7.85656 79.7088 7.85656H78.1572V8.63677H79.7088C79.934 8.63677 80.0937 8.61079 80.1887 8.55877C80.2843 8.50025 80.3321 8.39621 80.3321 8.24667ZM78.1572 10.6459H79.7704C79.995 10.6459 80.1616 10.6166 80.2704 10.5581C80.3792 10.4931 80.434 10.3793 80.434 10.2168C80.434 10.0542 80.3792 9.94044 80.2704 9.87541C80.1616 9.81037 79.995 9.77788 79.7704 9.77788H78.1572V10.6459ZM77.0346 11.7869C76.9799 11.7869 76.9327 11.7675 76.8918 11.7285C76.8509 11.6894 76.8302 11.6439 76.8302 11.5919V6.91057C76.8302 6.85855 76.8509 6.81304 76.8918 6.77398C76.9327 6.73498 76.9799 6.71552 77.0346 6.71552H79.9031C80.1616 6.71552 80.4 6.75123 80.6176 6.82278C80.8352 6.88781 81.0195 6.98205 81.1692 7.10562C81.3252 7.22261 81.4446 7.36893 81.5264 7.54445C81.6145 7.71353 81.6591 7.90207 81.6591 8.11014C81.6591 8.3897 81.6113 8.60751 81.5157 8.76356C81.4208 8.91961 81.2981 9.0464 81.1484 9.14393C81.3799 9.28045 81.5396 9.4463 81.6283 9.64136C81.717 9.83641 81.761 10.0607 81.761 10.3143C81.761 10.5549 81.717 10.7694 81.6283 10.958C81.5465 11.14 81.4308 11.2928 81.2811 11.4164C81.1314 11.5399 80.9547 11.6342 80.7503 11.6992C80.5459 11.7577 80.3214 11.7869 80.0767 11.7869H77.0346Z" fill="#484746"/>
<path d="M44.2476 17.36C44.3558 17.36 44.4369 17.3892 44.491 17.4478C44.5451 17.4998 44.5924 17.5811 44.633 17.6916L47.1178 23.8554C47.1246 23.8749 47.1279 23.8976 47.1279 23.9236C47.1279 23.9952 47.1009 24.0569 47.0468 24.1089C46.9927 24.161 46.9285 24.1869 46.8541 24.1869H46.1239C45.9887 24.1869 45.894 24.161 45.8399 24.1089C45.7858 24.0504 45.7486 23.9952 45.7283 23.9431L45.2922 22.8606H42.0873L41.6512 23.9431C41.6309 23.9952 41.5937 24.0504 41.5396 24.1089C41.4855 24.161 41.3909 24.1869 41.2557 24.1869H40.5254C40.451 24.1869 40.3868 24.161 40.3327 24.1089C40.2786 24.0569 40.2516 23.9952 40.2516 23.9236C40.2516 23.8976 40.255 23.8749 40.2617 23.8554L42.7465 17.6916C42.7871 17.5811 42.8345 17.4998 42.8886 17.4478C42.9426 17.3892 43.0238 17.36 43.132 17.36H44.2476ZM44.8054 21.6415L43.6897 18.8619L42.5742 21.6415H44.8054Z" fill="#484746"/>
<path d="M51.4297 20.6467C51.4297 20.4971 51.3824 20.3964 51.2877 20.3444C51.1931 20.2859 51.0341 20.2566 50.8111 20.2566H49.2694V21.0368H50.8111C51.0341 21.0368 51.1931 21.0108 51.2877 20.9588C51.3824 20.9003 51.4297 20.7962 51.4297 20.6467ZM49.2694 23.0459H50.8719C51.095 23.0459 51.2607 23.0166 51.3689 22.9581C51.477 22.8931 51.5311 22.7793 51.5311 22.6168C51.5311 22.4542 51.477 22.3405 51.3689 22.2754C51.2607 22.2104 51.095 22.1779 50.8719 22.1779H49.2694V23.0459ZM48.1538 24.187C48.0997 24.187 48.0524 24.1675 48.0118 24.1285C47.9713 24.0894 47.9509 24.0439 47.9509 23.9919V19.3106C47.9509 19.2586 47.9713 19.2131 48.0118 19.174C48.0524 19.135 48.0997 19.1155 48.1538 19.1155H51.0038C51.2607 19.1155 51.4974 19.1513 51.7137 19.2228C51.9301 19.2878 52.1126 19.3821 52.2614 19.5056C52.4169 19.6226 52.5352 19.769 52.6164 19.9445C52.7043 20.1136 52.7482 20.3021 52.7482 20.5102C52.7482 20.7897 52.7009 21.0075 52.6062 21.1636C52.5116 21.3196 52.3899 21.4464 52.2411 21.544C52.471 21.6805 52.6299 21.8463 52.7178 22.0414C52.8057 22.2364 52.8496 22.4608 52.8496 22.7143C52.8496 22.9549 52.8057 23.1694 52.7178 23.358C52.6367 23.54 52.5217 23.6928 52.373 23.8164C52.2242 23.9399 52.0484 24.0342 51.8455 24.0992C51.6427 24.1577 51.4196 24.187 51.1762 24.187H48.1538Z" fill="#484746"/>
<path d="M58.384 19.1155C58.4584 19.1155 58.5226 19.1415 58.5767 19.1935C58.6308 19.2456 58.6578 19.3073 58.6578 19.3789V20.0225C58.6578 20.094 58.6308 20.1558 58.5767 20.2079C58.5226 20.2599 58.4584 20.2859 58.384 20.2859H56.7207V23.9236C56.7207 23.9952 56.6936 24.0569 56.6396 24.109C56.5855 24.161 56.5212 24.187 56.4469 24.187H55.676C55.6016 24.187 55.5374 24.161 55.4833 24.109C55.4292 24.0569 55.4022 23.9952 55.4022 23.9236V20.2859H53.7389C53.6645 20.2859 53.6003 20.2599 53.5462 20.2079C53.4921 20.1558 53.465 20.094 53.465 20.0225V19.3789C53.465 19.3073 53.4921 19.2456 53.5462 19.1935C53.6003 19.1415 53.6645 19.1155 53.7389 19.1155H58.384Z" fill="#484746"/>
<path d="M61.7627 19.018C62.1345 19.018 62.4692 19.0732 62.7667 19.1838C63.0711 19.2943 63.3314 19.4471 63.5478 19.6422C63.7711 19.8372 63.9465 20.0648 64.0748 20.3248C64.2101 20.5849 64.288 20.8645 64.3082 21.1636C64.3151 21.2221 64.3182 21.2969 64.3182 21.3879C64.3182 21.4789 64.3182 21.57 64.3182 21.661C64.3182 21.752 64.3182 21.843 64.3182 21.9341C64.3182 22.0186 64.3151 22.0901 64.3082 22.1486C64.2811 22.4477 64.2038 22.7273 64.0748 22.9874C63.9465 23.2475 63.7711 23.475 63.5478 23.6701C63.3314 23.8586 63.0711 24.0081 62.7667 24.1187C62.4692 24.2292 62.1345 24.2845 61.7627 24.2845C61.3908 24.2845 61.0527 24.2292 60.7484 24.1187C60.4509 24.0081 60.1906 23.8586 59.9675 23.6701C59.7511 23.475 59.5787 23.2475 59.4503 22.9874C59.3218 22.7273 59.244 22.4477 59.217 22.1486C59.2103 22.0901 59.2035 22.0186 59.1967 21.9341C59.1967 21.843 59.1967 21.752 59.1967 21.661C59.1967 21.57 59.1967 21.4789 59.1967 21.3879C59.2035 21.2969 59.2103 21.2221 59.217 21.1636C59.2373 20.8645 59.3116 20.5849 59.4401 20.3248C59.5754 20.0648 59.7511 19.8372 59.9675 19.6422C60.1906 19.4471 60.4509 19.2943 60.7484 19.1838C61.0527 19.0732 61.3908 19.018 61.7627 19.018ZM62.9899 21.2124C62.9698 21.0108 62.9189 20.845 62.8377 20.7149C62.7633 20.5784 62.6687 20.4712 62.5538 20.3931C62.4388 20.3151 62.3137 20.2631 62.1785 20.237C62.0433 20.2046 61.9047 20.1883 61.7627 20.1883C61.6207 20.1883 61.4821 20.2046 61.3469 20.237C61.2116 20.2631 61.0865 20.3151 60.9716 20.3931C60.8567 20.4712 60.7586 20.5784 60.6775 20.7149C60.6031 20.845 60.5558 21.0108 60.5355 21.2124C60.5287 21.2644 60.522 21.3294 60.5152 21.4074C60.5152 21.4854 60.5152 21.5667 60.5152 21.6512C60.5152 21.7358 60.5152 21.8203 60.5152 21.9048C60.522 21.9828 60.5287 22.0446 60.5355 22.0901C60.5558 22.2917 60.6031 22.4607 60.6775 22.5973C60.7586 22.7273 60.8567 22.8313 60.9716 22.9094C61.0865 22.9874 61.2116 23.0426 61.3469 23.0752C61.4821 23.1011 61.6207 23.1142 61.7627 23.1142C61.9047 23.1142 62.0433 23.1011 62.1785 23.0752C62.3137 23.0426 62.4388 22.9874 62.5538 22.9094C62.6687 22.8313 62.7633 22.7273 62.8377 22.5973C62.9189 22.4607 62.9698 22.2917 62.9899 22.0901C62.9969 22.0446 63 21.9828 63 21.9048C63 21.8203 63 21.7358 63 21.6512C63 21.5667 63 21.4854 63 21.4074C63 21.3294 62.9969 21.2644 62.9899 21.2124Z" fill="#484746"/>
<path d="M66.5371 21.3099C66.5233 21.4074 66.5163 21.5212 66.5163 21.6512C66.5163 21.7813 66.5233 21.8951 66.5371 21.9926C66.5572 22.1941 66.6044 22.3664 66.6786 22.5095C66.7535 22.6525 66.8446 22.7696 66.9528 22.8606C67.0679 22.9451 67.1924 23.0101 67.3277 23.0556C67.4629 23.0946 67.6019 23.1142 67.744 23.1142C67.9126 23.1142 68.0547 23.1011 68.1698 23.0752C68.2849 23.0491 68.383 23.0134 68.4641 22.9678C68.5453 22.9158 68.6126 22.8606 68.6667 22.8021C68.7277 22.7371 68.7849 22.6655 68.839 22.5875C68.8799 22.529 68.927 22.4705 68.9811 22.4119C69.0352 22.3534 69.0994 22.3242 69.1736 22.3242H69.9447C70.0189 22.3242 70.083 22.3502 70.1371 22.4022C70.1981 22.4542 70.2252 22.516 70.2182 22.5875C70.212 22.7241 70.161 22.8898 70.066 23.0849C69.9717 23.2799 69.8226 23.4685 69.6201 23.6506C69.4239 23.8261 69.1704 23.9757 68.8591 24.0992C68.5484 24.2227 68.1767 24.2845 67.744 24.2845C67.3717 24.2845 67.0371 24.226 66.7396 24.1089C66.4421 23.9854 66.1818 23.8229 65.9585 23.6213C65.7421 23.4132 65.5698 23.1759 65.4415 22.9094C65.3195 22.6363 65.2453 22.3502 65.2182 22.0511C65.205 21.9341 65.1981 21.804 65.1981 21.661C65.1981 21.518 65.205 21.3847 65.2182 21.2611C65.2384 20.962 65.3132 20.6759 65.4415 20.4029C65.5698 20.1298 65.7421 19.8925 65.9585 19.691C66.1748 19.4829 66.4321 19.3203 66.7296 19.2033C67.034 19.0798 67.3717 19.018 67.744 19.018C68.1767 19.018 68.5484 19.0798 68.8591 19.2033C69.1704 19.3268 69.4239 19.4796 69.6201 19.6617C69.8226 19.8372 69.9717 20.0225 70.066 20.2176C70.161 20.4126 70.212 20.5784 70.2182 20.7149C70.2252 20.7865 70.1981 20.8482 70.1371 20.9003C70.083 20.9523 70.0189 20.9783 69.9447 20.9783H69.1736C69.0994 20.9783 69.0352 20.9491 68.9811 20.8905C68.927 20.832 68.8799 20.7735 68.839 20.7149C68.7849 20.637 68.7277 20.5687 68.6667 20.5102C68.6126 20.4451 68.5453 20.3899 68.4641 20.3444C68.383 20.2924 68.2849 20.2534 68.1698 20.2273C68.0547 20.2013 67.9126 20.1883 67.744 20.1883C67.6019 20.1883 67.4629 20.2111 67.3277 20.2566C67.1924 20.2956 67.0679 20.3606 66.9528 20.4516C66.8446 20.5361 66.7535 20.65 66.6786 20.793C66.6044 20.936 66.5572 21.1083 66.5371 21.3099Z" fill="#484746"/>
<path d="M76.0616 19.1155C76.1365 19.1155 76.2006 19.1415 76.2547 19.1935C76.3088 19.2456 76.3359 19.3073 76.3359 19.3789V23.9236C76.3359 23.9952 76.3088 24.0569 76.2547 24.109C76.2006 24.161 76.1365 24.187 76.0616 24.187H75.2912C75.2164 24.187 75.1522 24.161 75.0981 24.109C75.044 24.0569 75.017 23.9952 75.017 23.9236V20.2859H72.644V23.9236C72.644 23.9952 72.617 24.0569 72.5629 24.109C72.5088 24.161 72.4447 24.187 72.3698 24.187H71.5994C71.5252 24.187 71.4604 24.161 71.4063 24.109C71.3522 24.0569 71.3252 23.9952 71.3252 23.9236V19.3789C71.3252 19.3073 71.3522 19.2456 71.4063 19.1935C71.4604 19.1415 71.5252 19.1155 71.5994 19.1155H76.0616Z" fill="#484746"/>
<path d="M77.4698 21.6512C77.4698 21.2871 77.5277 20.9458 77.6421 20.6272C77.7572 20.3021 77.9226 20.0225 78.1396 19.7885C78.356 19.5479 78.6157 19.3593 78.9201 19.2228C79.2314 19.0863 79.5761 19.018 79.9547 19.018C80.3333 19.018 80.6748 19.0863 80.9792 19.2228C81.2899 19.3528 81.5541 19.5316 81.7704 19.7592C81.9868 19.9802 82.1522 20.2436 82.2673 20.5492C82.3887 20.8482 82.4497 21.1636 82.4497 21.4952V21.9341C82.4497 22.0056 82.4226 22.0674 82.3686 22.1194C82.3145 22.1714 82.2503 22.1974 82.1761 22.1974H78.7887C78.7887 22.3469 78.8189 22.4802 78.8799 22.5973C78.9472 22.7078 79.0352 22.8021 79.1434 22.8801C79.2516 22.9581 79.3767 23.0166 79.5189 23.0556C79.6604 23.0946 79.8063 23.1142 79.9547 23.1142C80.1711 23.1142 80.3472 23.0946 80.4824 23.0556C80.6176 23.0101 80.7289 22.9549 80.817 22.8898C80.8912 22.8378 80.9522 22.8021 80.9994 22.7826C81.0465 22.7631 81.1107 22.7533 81.1918 22.7533H82.0038C82.078 22.7533 82.1421 22.7793 82.1962 22.8313C82.2572 22.8833 82.2843 22.9451 82.2774 23.0166C82.2704 23.1077 82.2164 23.2247 82.1151 23.3677C82.0201 23.5108 81.8748 23.6506 81.6786 23.7871C81.483 23.9236 81.2396 24.0407 80.9484 24.1382C80.6648 24.2357 80.3333 24.2845 79.9547 24.2845C79.5761 24.2845 79.2314 24.2227 78.9201 24.0992C78.6157 23.9691 78.356 23.7871 78.1396 23.5531C77.9226 23.3189 77.7572 23.0426 77.6421 22.7241C77.5277 22.3989 77.4698 22.0414 77.4698 21.6512ZM79.9547 20.1883C79.7585 20.1883 79.5899 20.2176 79.4478 20.2761C79.3126 20.3281 79.1975 20.3996 79.1025 20.4906C79.0082 20.5752 78.934 20.6727 78.8799 20.7832C78.8321 20.8872 78.8019 20.9881 78.7887 21.0856H81.0805C81.0673 20.9881 81.0403 20.8872 80.9994 20.7832C80.9654 20.6727 80.905 20.5752 80.817 20.4906C80.7358 20.3996 80.6239 20.3281 80.4824 20.2761C80.3472 20.2176 80.1711 20.1883 79.9547 20.1883Z" fill="#484746"/>
<path d="M84.8761 22.3925V23.9236C84.8761 23.9952 84.8491 24.0569 84.795 24.109C84.7409 24.161 84.6767 24.187 84.6019 24.187H83.8315C83.7566 24.187 83.6925 24.161 83.6384 24.109C83.5843 24.0569 83.5572 23.9952 83.5572 23.9236V19.3789C83.5572 19.3073 83.5843 19.2456 83.6384 19.1935C83.6925 19.1415 83.7566 19.1155 83.8315 19.1155H84.6019C84.6767 19.1155 84.7409 19.1415 84.795 19.1935C84.8491 19.2456 84.8761 19.3073 84.8761 19.3789V20.9198L86.7421 19.2813C86.7824 19.2488 86.8333 19.2131 86.8943 19.174C86.9616 19.135 87.0428 19.1155 87.1377 19.1155H88.1012C88.1685 19.1155 88.2264 19.1383 88.2736 19.1838C88.3207 19.2293 88.3447 19.2846 88.3447 19.3496C88.3447 19.3821 88.3377 19.4146 88.3245 19.4471C88.3176 19.4731 88.2868 19.5056 88.2327 19.5446L85.8698 21.6025L88.456 23.7676C88.4969 23.8066 88.5239 23.8391 88.5371 23.8651C88.5509 23.8912 88.5572 23.9204 88.5572 23.9529C88.5572 24.0179 88.534 24.0732 88.4868 24.1187C88.439 24.1642 88.3818 24.187 88.3138 24.187H87.239C87.1377 24.187 87.0497 24.1675 86.9755 24.1285C86.9075 24.0894 86.8572 24.0537 86.8233 24.0212L84.8761 22.3925Z" fill="#484746"/>
<path d="M93.7428 19.1155C93.817 19.1155 93.8818 19.1415 93.9359 19.1935C93.9899 19.2456 94.017 19.3073 94.017 19.3789V20.0225C94.017 20.094 93.9899 20.1558 93.9359 20.2079C93.8818 20.2599 93.817 20.2859 93.7428 20.2859H92.0793V23.9236C92.0793 23.9952 92.0522 24.0569 91.9981 24.109C91.944 24.161 91.8799 24.187 91.8057 24.187H91.0346C90.9604 24.187 90.8962 24.161 90.8421 24.109C90.7881 24.0569 90.761 23.9952 90.761 23.9236V20.2859H89.0975C89.0233 20.2859 88.9591 20.2599 88.905 20.2079C88.8509 20.1558 88.8239 20.094 88.8239 20.0225V19.3789C88.8239 19.3073 88.8509 19.2456 88.905 19.1935C88.9591 19.1415 89.0233 19.1155 89.0975 19.1155H93.7428Z" fill="#484746"/>
<path d="M97.7283 24.2845C97.5182 24.2845 97.3289 24.265 97.1604 24.226C96.9981 24.1869 96.8528 24.1382 96.7239 24.0797C96.6025 24.0212 96.4975 23.9594 96.4094 23.8944C96.322 23.8229 96.2509 23.7578 96.1968 23.6993V25.7767C96.1968 25.8482 96.1698 25.91 96.1157 25.962C96.0616 26.014 95.9975 26.04 95.9226 26.04H95.1522C95.0773 26.04 95.0132 26.014 94.9591 25.962C94.905 25.91 94.878 25.8482 94.878 25.7767V19.3788C94.878 19.3073 94.905 19.2455 94.9591 19.1935C95.0132 19.1415 95.0773 19.1155 95.1522 19.1155H95.9226C95.9975 19.1155 96.0616 19.1415 96.1157 19.1935C96.1698 19.2455 96.1968 19.3073 96.1968 19.3788V19.6032C96.2509 19.5446 96.322 19.4829 96.4094 19.4178C96.4975 19.3463 96.6025 19.2813 96.7239 19.2228C96.8528 19.1643 96.9981 19.1155 97.1604 19.0765C97.3289 19.0375 97.5182 19.018 97.7283 19.018C98.066 19.018 98.3704 19.083 98.6409 19.2131C98.9182 19.3366 99.1516 19.5056 99.3409 19.7202C99.5371 19.9282 99.6887 20.1721 99.7969 20.4516C99.912 20.7247 99.9761 21.0108 99.9899 21.3099C99.9969 21.4074 100 21.5212 100 21.6512C100 21.7813 99.9969 21.8951 99.9899 21.9926C99.9761 22.2917 99.912 22.581 99.7969 22.8606C99.6887 23.1337 99.5371 23.3775 99.3409 23.5921C99.1516 23.8001 98.9182 23.9691 98.6409 24.0992C98.3704 24.2227 98.066 24.2845 97.7283 24.2845ZM98.6711 21.9243C98.6918 21.7423 98.6918 21.5602 98.6711 21.3782C98.6308 20.9556 98.4956 20.6532 98.2654 20.4712C98.0358 20.2826 97.7553 20.1883 97.4239 20.1883C97.0924 20.1883 96.8119 20.2826 96.5824 20.4712C96.3591 20.6597 96.2302 20.9295 96.1968 21.2806C96.183 21.3782 96.1761 21.5017 96.1761 21.6512C96.1761 21.8008 96.183 21.9243 96.1968 22.0218C96.2302 22.3599 96.3591 22.6265 96.5824 22.8216C96.8119 23.0166 97.0924 23.1142 97.4239 23.1142C97.7553 23.1142 98.0358 23.0231 98.2654 22.8411C98.4956 22.6525 98.6308 22.3469 98.6711 21.9243Z" fill="#484746"/>
</g>
<defs>
<clipPath id="clip0">
<rect width="100" height="31" fill="white"/>
</clipPath>
</defs>
</svg>
