<svg width="96" height="71" viewBox="0 0 96 71" fill="none" xmlns="http://www.w3.org/2000/svg">
<path d="M6.98851 47.24C6.98851 46.8424 7.31786 46.52 7.72414 46.52H13.6092C14.0155 46.52 14.3448 46.8424 14.3448 47.24V52.28C14.3448 52.6776 14.0155 53 13.6092 53H7.72414C7.31786 53 6.98851 52.6776 6.98851 52.28V47.24Z" fill="url(#paint0_linear)"/>
<path d="M19.8621 35.72C19.8621 35.3224 19.4558 35 19.8621 35H59.4286C61.7143 35 64 37.25 64 39.5L64 66.5C64 68.75 61.7143 71 59.4286 71H20.5977C20.1914 71 19.8621 70.6776 19.8621 70.28V35.72Z" fill="url(#paint1_linear)"/>
<path d="M14.3448 35.72C14.3448 35.3224 14.6742 35 15.0805 35H22.8046C23.2109 35 23.5402 35.3224 23.5402 35.72V41.84C23.5402 42.2376 23.2109 42.56 22.8046 42.56H15.0805C14.6742 42.56 14.3448 42.2376 14.3448 41.84V35.72Z" fill="url(#paint2_linear)"/>
<path d="M18.023 64.16C18.023 63.7624 18.3523 63.44 18.7586 63.44H26.4828C26.889 63.44 27.2184 63.7624 27.2184 64.16V70.28C27.2184 70.6776 26.889 71 26.4828 71H18.7586C18.3523 71 18.023 70.6776 18.023 70.28V64.16Z" fill="url(#paint3_linear)"/>
<path d="M17.2874 45.44C17.2874 45.0424 17.6167 44.72 18.023 44.72H25.7471C26.1534 44.72 26.4828 45.0424 26.4828 45.44V51.56C26.4828 51.9576 26.1534 52.28 25.7471 52.28H18.023C17.6167 52.28 17.2874 51.9576 17.2874 51.56V45.44Z" fill="url(#paint4_linear)"/>
<path d="M15.4483 54.8C15.4483 54.4024 15.7776 54.08 16.1839 54.08H23.908C24.3143 54.08 24.6437 54.4024 24.6437 54.8V60.92C24.6437 61.3176 24.3143 61.64 23.908 61.64H16.1839C15.7776 61.64 15.4483 61.3176 15.4483 60.92V54.8Z" fill="url(#paint5_linear)"/>
<path d="M4.41379 37.52C4.41379 37.1224 4.74315 36.8 5.14943 36.8H11.0345C11.4408 36.8 11.7701 37.1224 11.7701 37.52V42.2C11.7701 42.5976 11.4408 42.92 11.0345 42.92H5.14943C4.74315 42.92 4.41379 42.5976 4.41379 42.2V37.52Z" fill="url(#paint6_linear)"/>
<path d="M4.78161 60.2C4.78161 59.8024 5.11096 59.48 5.51724 59.48H13.2414C13.6477 59.48 13.977 59.8024 13.977 60.2V66.32C13.977 66.7176 13.6477 67.04 13.2414 67.04H5.51724C5.11096 67.04 4.78161 66.7176 4.78161 66.32V60.2Z" fill="url(#paint7_linear)"/>
<path d="M0 46.52C0 46.1224 0.329354 45.8 0.735632 45.8H3.31034C3.71662 45.8 4.04598 46.1224 4.04598 46.52V48.32C4.04598 48.7176 3.71662 49.04 3.31034 49.04H0.735632C0.329354 49.04 0 48.7176 0 48.32V46.52Z" fill="url(#paint8_linear)"/>
<path d="M1.83908 55.16C1.83908 54.7624 2.16843 54.44 2.57471 54.44H5.14943C5.5557 54.44 5.88506 54.7624 5.88506 55.16V56.96C5.88506 57.3576 5.5557 57.68 5.14943 57.68H2.57471C2.16843 57.68 1.83908 57.3576 1.83908 56.96V55.16Z" fill="url(#paint9_linear)"/>
<path d="M1.10345 67.76C1.10345 67.3624 1.4328 67.04 1.83908 67.04H3.31034C3.71662 67.04 4.04598 67.3624 4.04598 67.76V68.12C4.04598 68.5176 3.71662 68.84 3.31034 68.84H1.83908C1.4328 68.84 1.10345 68.5176 1.10345 68.12V67.76Z" fill="url(#paint10_linear)"/>
<path d="M11.7701 56.96C11.7701 56.5624 12.0995 56.24 12.5057 56.24H13.2414C13.6477 56.24 13.977 56.5624 13.977 56.96V57.32C13.977 57.7176 13.6477 58.04 13.2414 58.04H12.5057C12.0995 58.04 11.7701 57.7176 11.7701 57.32V56.96Z" fill="url(#paint11_linear)"/>
<path d="M0 39.68C0 39.2824 0.329354 38.96 0.735632 38.96H1.47126C1.87754 38.96 2.2069 39.2824 2.2069 39.68V40.04C2.2069 40.4376 1.87754 40.76 1.47126 40.76H0.735632C0.329354 40.76 0 40.4376 0 40.04V39.68Z" fill="url(#paint12_linear)"/>
<path d="M13.977 68.84C13.977 68.4424 14.3064 68.12 14.7126 68.12H15.4483C15.8546 68.12 16.1839 68.4424 16.1839 68.84V69.2C16.1839 69.5976 15.8546 69.92 15.4483 69.92H14.7126C14.3064 69.92 13.977 69.5976 13.977 69.2V68.84Z" fill="url(#paint13_linear)"/>
<g clip-path="url(#clip0)">
<path d="M74.5902 45.6228C73.0192 45.6228 71.5939 44.8228 70.7776 43.4827C70.4711 42.9795 69.8147 42.82 69.3118 43.1266C68.8088 43.433 68.6492 44.0894 68.9558 44.5924C69.5235 45.5244 70.292 46.277 71.1867 46.8155L70.0812 51.8324L67.416 48.7635C67.8999 48.2072 67.7831 47.5574 67.3663 47.195C66.922 46.8086 66.2482 46.8554 65.8615 47.2999L63.9861 49.4567L59.2618 44.2075C59.6638 43.4355 59.9075 42.588 59.9771 41.7048C69.1203 44.3963 78.2666 37.4957 78.2666 28.0166V19.2C78.2666 18.6109 77.789 18.1333 77.1999 18.1333C76.6108 18.1333 76.1332 18.6109 76.1332 19.2V28.0166C76.1332 34.7069 70.6903 40.1499 63.9999 40.1499C57.3095 40.1499 51.8666 34.707 51.8666 28.0166V18.9642C54.467 18.8166 56.6789 17.184 57.4671 14.225C61.9085 17.0693 66.8868 18.9121 72.1114 19.6434C72.697 19.725 73.2343 19.3166 73.3156 18.7349C73.3972 18.1516 72.9906 17.6124 72.4072 17.5306C67.0872 16.786 61.8958 14.7949 57.2829 11.5293C56.5777 11.0298 55.5957 11.538 55.5999 12.4068C55.6001 12.4333 55.5901 15.0788 53.5834 16.286C52.3145 17.0494 51.031 16.8029 50.8102 16.8005C50.265 16.7953 49.803 17.2044 49.7409 17.744C49.7291 17.8472 49.7333 17.4958 49.7333 26.2794C49.0207 25.9098 48.5333 25.1743 48.5333 24.328V11.3333C48.5333 9.93638 49.6697 8.79998 51.0666 8.79998C51.5027 8.79998 51.895 8.53438 52.057 8.12945C53.5141 4.48692 56.9903 2.13333 60.9135 2.13333H70.0611C75.321 2.13333 79.5999 6.41239 79.5999 11.6721V24.328C79.5999 24.917 80.0775 25.3946 80.6665 25.3946C81.2556 25.3946 81.7332 24.917 81.7332 24.328V11.6721C81.7332 5.23612 76.4972 0 70.0611 0H60.9135C56.3375 0 52.2579 2.61733 50.3422 6.72279C48.1118 7.07199 46.4 9.00651 46.4 11.3333V24.328C46.4 26.3686 47.8277 28.0837 49.7441 28.5441C49.9431 33.9919 53.2107 38.6698 57.8666 40.8959V41.1772C57.8666 42.3656 57.4031 43.4822 56.5617 44.3214C55.0693 45.8095 53.1886 45.6228 53.4094 45.6228C47.3246 45.6228 42.4 50.5468 42.4 56.6323V62.9332C42.4 63.5223 42.8776 63.9999 43.4666 63.9999C44.0557 63.9999 44.5333 63.5223 44.5333 62.9332V56.6323C44.5333 51.7263 48.5033 47.756 53.4097 47.7562C53.8765 47.7562 54.3425 47.7066 54.8033 47.608L56.2917 54.3627C56.4801 55.218 57.5651 55.4928 58.1387 54.8326L60.2402 52.4128L58.9417 62.8009C58.8686 63.3855 59.2834 63.9185 59.8678 63.9916C60.4534 64.0645 60.9855 63.6492 61.0586 63.0655L62.5593 51.06C62.6271 51.1354 63.2201 51.8003 63.2961 51.8674C63.7363 52.2538 64.407 52.2146 64.7985 51.7731C65.0094 51.5316 64.4638 52.1587 65.4382 51.0382L66.9415 63.0653C67.0144 63.6491 67.5464 64.0645 68.1323 63.9915C68.7168 63.9184 69.1315 63.3853 69.0584 62.8008L67.7599 52.4127L69.8614 54.8324C70.4358 55.4939 71.5203 55.2164 71.7084 54.3626L73.1968 47.6076C73.6487 47.7036 74.1146 47.7559 74.5903 47.7559C79.4962 47.756 83.4665 51.7259 83.4665 56.6323V62.9332C83.4665 63.5223 83.9441 63.9999 84.5332 63.9999C85.1223 63.9999 85.5999 63.5223 85.5999 62.9332V56.6323C85.5999 50.5474 80.6758 45.6226 74.5902 45.6228ZM57.9186 51.8324L56.8129 46.814C57.2195 46.5684 57.601 46.276 57.9526 45.9416L60.5387 48.8152L57.9186 51.8324Z" fill="#222222"/>
</g>
<defs>
<linearGradient id="paint0_linear" x1="64" y1="71.9" x2="27.5862" y2="72.0879" gradientUnits="userSpaceOnUse">
<stop stop-color="#FF9F18"/>
<stop offset="1" stop-color="#FDB813"/>
</linearGradient>
<linearGradient id="paint1_linear" x1="64" y1="71.9" x2="27.5862" y2="72.0879" gradientUnits="userSpaceOnUse">
<stop stop-color="#FF9F18"/>
<stop offset="1" stop-color="#FDB813"/>
</linearGradient>
<linearGradient id="paint2_linear" x1="64" y1="71.9" x2="27.5862" y2="72.0879" gradientUnits="userSpaceOnUse">
<stop stop-color="#FF9F18"/>
<stop offset="1" stop-color="#FDB813"/>
</linearGradient>
<linearGradient id="paint3_linear" x1="64" y1="71.9" x2="27.5862" y2="72.0879" gradientUnits="userSpaceOnUse">
<stop stop-color="#FF9F18"/>
<stop offset="1" stop-color="#FDB813"/>
</linearGradient>
<linearGradient id="paint4_linear" x1="64" y1="71.9" x2="27.5862" y2="72.0879" gradientUnits="userSpaceOnUse">
<stop stop-color="#FF9F18"/>
<stop offset="1" stop-color="#FDB813"/>
</linearGradient>
<linearGradient id="paint5_linear" x1="64" y1="71.9" x2="27.5862" y2="72.0879" gradientUnits="userSpaceOnUse">
<stop stop-color="#FF9F18"/>
<stop offset="1" stop-color="#FDB813"/>
</linearGradient>
<linearGradient id="paint6_linear" x1="64" y1="71.9" x2="27.5862" y2="72.0879" gradientUnits="userSpaceOnUse">
<stop stop-color="#FF9F18"/>
<stop offset="1" stop-color="#FDB813"/>
</linearGradient>
<linearGradient id="paint7_linear" x1="64" y1="71.9" x2="27.5862" y2="72.0879" gradientUnits="userSpaceOnUse">
<stop stop-color="#FF9F18"/>
<stop offset="1" stop-color="#FDB813"/>
</linearGradient>
<linearGradient id="paint8_linear" x1="64" y1="71.9" x2="27.5862" y2="72.0879" gradientUnits="userSpaceOnUse">
<stop stop-color="#FF9F18"/>
<stop offset="1" stop-color="#FDB813"/>
</linearGradient>
<linearGradient id="paint9_linear" x1="64" y1="71.9" x2="27.5862" y2="72.0879" gradientUnits="userSpaceOnUse">
<stop stop-color="#FF9F18"/>
<stop offset="1" stop-color="#FDB813"/>
</linearGradient>
<linearGradient id="paint10_linear" x1="64" y1="71.9" x2="27.5862" y2="72.0879" gradientUnits="userSpaceOnUse">
<stop stop-color="#FF9F18"/>
<stop offset="1" stop-color="#FDB813"/>
</linearGradient>
<linearGradient id="paint11_linear" x1="64" y1="71.9" x2="27.5862" y2="72.0879" gradientUnits="userSpaceOnUse">
<stop stop-color="#FF9F18"/>
<stop offset="1" stop-color="#FDB813"/>
</linearGradient>
<linearGradient id="paint12_linear" x1="64" y1="71.9" x2="27.5862" y2="72.0879" gradientUnits="userSpaceOnUse">
<stop stop-color="#FF9F18"/>
<stop offset="1" stop-color="#FDB813"/>
</linearGradient>
<linearGradient id="paint13_linear" x1="64" y1="71.9" x2="27.5862" y2="72.0879" gradientUnits="userSpaceOnUse">
<stop stop-color="#FF9F18"/>
<stop offset="1" stop-color="#FDB813"/>
</linearGradient>
<clipPath id="clip0">
<rect width="64" height="64" fill="white" transform="translate(32)"/>
</clipPath>
</defs>
</svg>
