<svg width="32" height="32" viewBox="0 0 32 32" fill="none" xmlns="http://www.w3.org/2000/svg">
<path d="M15.3333 18.6667C20.856 18.6667 25.3333 20.756 25.3333 23.3334V26.6667H5.33331V23.3334C5.33331 20.756 9.81065 18.6667 15.3333 18.6667ZM24 23.3334C24 21.4934 20.12 20 15.3333 20C10.5466 20 6.66665 21.4934 6.66665 23.3334V25.3334H24V23.3334ZM15.3333 6.66669C16.571 6.66669 17.758 7.15835 18.6331 8.03352C19.5083 8.90869 20 10.0957 20 11.3334C20 12.571 19.5083 13.758 18.6331 14.6332C17.758 15.5084 16.571 16 15.3333 16C14.0956 16 12.9087 15.5084 12.0335 14.6332C11.1583 13.758 10.6666 12.571 10.6666 11.3334C10.6666 10.0957 11.1583 8.90869 12.0335 8.03352C12.9087 7.15835 14.0956 6.66669 15.3333 6.66669ZM15.3333 8.00002C14.4493 8.00002 13.6014 8.35121 12.9763 8.97633C12.3512 9.60145 12 10.4493 12 11.3334C12 12.2174 12.3512 13.0653 12.9763 13.6904C13.6014 14.3155 14.4493 14.6667 15.3333 14.6667C16.2174 14.6667 17.0652 14.3155 17.6903 13.6904C18.3155 13.0653 18.6666 12.2174 18.6666 11.3334C18.6666 10.4493 18.3155 9.60145 17.6903 8.97633C17.0652 8.35121 16.2174 8.00002 15.3333 8.00002Z" fill="#2E2E2E"/>
<path d="M20 11.5C20 13.9853 17.9853 16 15.5 16C13.0147 16 11 13.9853 11 11.5C11 9.01474 13.0147 7.00002 15.5 7.00002C17.9853 7.00002 20 9.01474 20 11.5Z" fill="#2E2E2E"/>
<path d="M24.5 26H6.5V22.5C7.16667 21.5 9.8 19.5 15 19.5C21.5 19.5 23 21 24.5 22.5C25.0657 23.0657 24.8333 24.8333 24.5 26Z" fill="#2E2E2E"/>
</svg>
