<svg width="20" height="20" viewBox="0 0 20 20" fill="none" xmlns="http://www.w3.org/2000/svg">
<path d="M12.8844 6.63218L13.0007 6.86798L13.2609 6.9058L19.2101 7.77041C19.2103 7.77044 19.2105 7.77047 19.2108 7.77051C19.3522 7.79187 19.4423 7.92024 19.4222 8.05038L19.4222 8.05037L19.4214 8.05591C19.4138 8.10893 19.3888 8.15876 19.3488 8.19811C19.3487 8.19821 19.3486 8.19832 19.3485 8.19842L15.0439 12.3952L14.8557 12.5787L14.9002 12.8377L15.9173 18.7651L15.9174 18.7655C15.9406 18.8999 15.8504 19.029 15.7135 19.0526L15.7127 19.0528C15.6583 19.0622 15.6026 19.053 15.5576 19.029L15.5553 19.0278L10.2327 16.2294L9.99998 16.107L9.7673 16.2294L4.44465 19.0278L4.44387 19.0282C4.40275 19.0499 4.35638 19.0597 4.31 19.0564C4.26362 19.0531 4.21909 19.0368 4.18147 19.0095C4.14385 18.9822 4.11464 18.9449 4.09714 18.9018C4.07965 18.8587 4.07458 18.8116 4.08251 18.7658L4.08262 18.7651L5.09981 12.8377L5.14427 12.5787L4.95606 12.3952L0.650588 8.19752L0.650555 8.19749C0.602884 8.15102 0.575611 8.08752 0.574729 8.02096C0.573851 7.95469 0.599201 7.89077 0.645229 7.84312C0.684533 7.80329 0.734224 7.77837 0.7871 7.77081L0.7883 7.77064L6.73908 6.9058L6.99927 6.86798L7.11558 6.63218L9.77454 1.24163C9.7747 1.24132 9.77485 1.24101 9.77501 1.24069C9.83816 1.11566 9.9897 1.06641 10.1115 1.12653L10.112 1.12681C10.1607 1.15074 10.2001 1.19015 10.224 1.23878L10.2242 1.23921L12.8844 6.63218Z" fill="#FDB813" stroke="#FDB813"/>
</svg>
