<svg width="16" height="15" viewBox="0 0 16 15" fill="none" xmlns="http://www.w3.org/2000/svg">
<path d="M0.27667 7.46395L4.18934 9.41395C4.34067 9.48862 4.51934 9.48328 4.664 9.39861L8.14667 7.37395L6.03867 9.24195C5.93134 9.33728 5.87 9.47328 5.87 9.61662V14.1666C5.87 14.6466 6.48267 14.8486 6.77 14.4673L8.46134 12.2186L12.644 14.6006C12.9373 14.7693 13.3133 14.5999 13.3813 14.2646L15.99 1.26461C16.068 0.873948 15.6793 0.555281 15.318 0.700614L0.318004 6.55061C-0.084663 6.70795 -0.110663 7.27128 0.27667 7.46395ZM14.83 1.96461L12.5373 13.3893L8.574 11.1319C8.358 11.0086 8.08 11.0633 7.92667 11.2659L6.87 12.6706V9.84128L12.5707 4.79061C13.022 4.39128 12.5033 3.68128 11.988 3.98395L4.39467 8.39861L1.73334 7.07261L14.83 1.96461Z" fill="#333333" fill-opacity="0.8"/>
</svg>
