<svg width="24" height="22" viewBox="0 0 24 22" fill="none" xmlns="http://www.w3.org/2000/svg">
<path d="M0.415005 11.1958L6.28401 14.1208C6.51101 14.2328 6.77901 14.2248 6.99601 14.0978L12.22 11.0608L9.05801 13.8628C8.89701 14.0058 8.80501 14.2098 8.80501 14.4248V21.2498C8.80501 21.9698 9.72401 22.2728 10.155 21.7008L12.692 18.3278L18.966 21.9008C19.406 22.1538 19.97 21.8998 20.072 21.3968L23.985 1.8968C24.102 1.3108 23.519 0.832799 22.977 1.0508L0.477005 9.8258C-0.126995 10.0618 -0.165995 10.9068 0.415005 11.1958ZM22.245 2.9468L18.806 20.0838L12.861 16.6978C12.537 16.5128 12.12 16.5948 11.89 16.8988L10.305 19.0058V14.7618L18.856 7.1858C19.533 6.5868 18.755 5.5218 17.982 5.9758L6.59201 12.5978L2.60001 10.6088L22.245 2.9468Z" fill="#333333"/>
</svg>
