<svg width="24" height="22" viewBox="0 0 24 22" fill="none" xmlns="http://www.w3.org/2000/svg">
<path d="M0.414975 11.196L6.28397 14.121C6.51097 14.233 6.77897 14.225 6.99597 14.098L12.22 11.061L9.05797 13.863C8.89697 14.006 8.80498 14.21 8.80498 14.425V21.25C8.80498 21.97 9.72398 22.273 10.155 21.701L12.692 18.328L18.966 21.901C19.406 22.154 19.97 21.9 20.072 21.397L23.985 1.89704C24.102 1.31104 23.519 0.833044 22.977 1.05104L0.476975 9.82605C-0.127025 10.062 -0.166025 10.907 0.414975 11.196ZM22.245 2.94704L18.806 20.084L12.861 16.698C12.537 16.513 12.12 16.595 11.89 16.899L10.305 19.006V14.762L18.856 7.18604C19.533 6.58704 18.755 5.52204 17.982 5.97604L6.59197 12.598L2.59997 10.609L22.245 2.94704Z" fill="white" fill-opacity="0.9"/>
</svg>
