
<svg width="16" height="16" viewBox="0 0 16 16" fill="none" xmlns="http://www.w3.org/2000/svg">
<path d="M12.0623 15.1111H3.93781C3.76679 15.1071 3.59823 15.0694 3.44178 15.0002C3.28533 14.931 3.14405 14.8316 3.026 14.7078C2.90796 14.584 2.81547 14.4381 2.75382 14.2785C2.69217 14.1189 2.66257 13.9488 2.6667 13.7778V4.99109H3.55559V13.7778C3.55135 13.8321 3.55788 13.8867 3.57482 13.9385C3.59176 13.9902 3.61876 14.0382 3.65428 14.0795C3.68981 14.1208 3.73314 14.1546 3.7818 14.1791C3.83046 14.2036 3.88348 14.2183 3.93781 14.2222H12.0623C12.1166 14.2183 12.1696 14.2036 12.2183 14.1791C12.2669 14.1546 12.3103 14.1208 12.3458 14.0795C12.3813 14.0382 12.4083 13.9902 12.4252 13.9385C12.4422 13.8867 12.4487 13.8321 12.4445 13.7778V4.99109H13.3334V13.7778C13.3375 13.9488 13.3079 14.1189 13.2462 14.2785C13.1846 14.4381 13.0921 14.584 12.9741 14.7078C12.856 14.8316 12.7147 14.931 12.5583 15.0002C12.4018 15.0694 12.2333 15.1071 12.0623 15.1111Z" fill="#333333"/>
<path d="M13.68 3.99997H2.22222C2.10434 3.99997 1.9913 3.95315 1.90795 3.8698C1.8246 3.78645 1.77777 3.6734 1.77777 3.55553C1.77777 3.43765 1.8246 3.32461 1.90795 3.24126C1.9913 3.15791 2.10434 3.11108 2.22222 3.11108H13.68C13.7979 3.11108 13.9109 3.15791 13.9943 3.24126C14.0776 3.32461 14.1244 3.43765 14.1244 3.55553C14.1244 3.6734 14.0776 3.78645 13.9943 3.8698C13.9109 3.95315 13.7979 3.99997 13.68 3.99997Z" fill="#333333"/>
<path d="M9.33331 5.77783H10.2222V12.4445H9.33331V5.77783Z" fill="#333333"/>
<path d="M5.77777 5.77783H6.66666V12.4445H5.77777V5.77783Z" fill="#333333"/>
<path d="M10.2222 2.60447H9.37777V1.77781H6.62222V2.60447H5.77777V1.77781C5.77749 1.54956 5.86501 1.32995 6.02222 1.16447C6.17942 0.998993 6.39426 0.900328 6.62222 0.888916H9.37777C9.60573 0.900328 9.82057 0.998993 9.97777 1.16447C10.135 1.32995 10.2225 1.54956 10.2222 1.77781V2.60447Z" fill="#333333"/>
</svg>
