<svg width="24" height="24" viewBox="0 0 24 24" fill="none" xmlns="http://www.w3.org/2000/svg">
<g clip-path="url(#clip0)">
<path d="M23.155 13.8925C23.871 7.86554 22.811 4.06054 20.899 2.33954L20.9 2.33854C17.814 -0.600464 7.39202 -1.03546 3.70002 2.47054C2.04202 4.18554 1.45802 6.70254 1.39402 9.81854C1.33002 12.9355 1.25402 18.7745 6.69502 20.3585H6.70002L6.69502 22.7775C6.69502 22.7775 6.65802 23.7575 7.28402 23.9545C8.00002 24.1865 8.32402 23.7315 10.551 21.0715C14.275 21.3945 17.135 20.6545 17.46 20.5465C18.212 20.2945 22.467 19.7315 23.155 13.8925ZM10.918 19.3695C10.918 19.3695 8.56102 22.3085 7.82802 23.0715C7.58802 23.3195 7.32502 23.2965 7.32902 22.8045C7.32902 22.4815 7.34702 18.7885 7.34702 18.7885C2.73402 17.4665 3.00602 12.4945 3.05602 9.89354C3.10602 7.29154 3.58202 5.16054 4.98602 3.72554C8.22502 0.688536 17.362 1.36754 19.69 3.55554C22.536 6.07854 21.523 13.2065 21.529 13.4495C20.944 18.3235 17.496 18.6325 16.862 18.8435C16.591 18.9335 14.076 19.5805 10.918 19.3695Z" fill="#333333"/>
<path d="M12.222 4.29688C11.837 4.29688 11.837 4.89688 12.222 4.90188C15.209 4.92488 17.669 7.00688 17.696 10.8259C17.696 11.2289 18.286 11.2239 18.281 10.8209H18.28C18.248 6.70588 15.562 4.31988 12.222 4.29688Z" fill="#333333"/>
<path d="M16.151 10.193C16.142 10.591 16.731 10.61 16.736 10.207C16.785 7.93804 15.386 6.06904 12.757 5.87204C12.372 5.84404 12.332 6.44904 12.716 6.47704C14.996 6.65004 16.197 8.20604 16.151 10.193Z" fill="#333333"/>
<path d="M15.521 12.7741C15.027 12.4881 14.524 12.6661 14.316 12.9471L13.881 13.5101C13.66 13.7961 13.247 13.7581 13.247 13.7581C10.233 12.9611 9.427 9.8071 9.427 9.8071C9.427 9.8071 9.39 9.3801 9.666 9.1511L10.21 8.7011C10.482 8.4851 10.654 7.9651 10.377 7.4541C9.637 6.1171 9.14 5.6561 8.887 5.3021C8.621 4.9691 8.221 4.8941 7.805 5.1191H7.796C6.931 5.6251 5.984 6.5721 6.287 7.5471C6.804 8.5751 7.754 11.8521 10.782 14.3281C12.205 15.4991 14.457 16.6991 15.413 16.9761L15.422 16.9901C16.364 17.3041 17.28 16.3201 17.769 15.4291V15.4221C17.986 14.9911 17.914 14.5831 17.597 14.3161C17.035 13.7681 16.187 13.1631 15.521 12.7741Z" fill="#333333"/>
<path d="M13.169 8.10369C14.13 8.15969 14.596 8.66169 14.646 9.69269C14.664 10.0957 15.249 10.0677 15.231 9.66469C15.167 8.31869 14.465 7.56869 13.201 7.49869C12.816 7.47569 12.78 8.08069 13.169 8.10369Z" fill="#333333"/>
</g>
<defs>
<clipPath id="clip0">
<rect width="24" height="24" fill="white"/>
</clipPath>
</defs>
</svg>
