<svg width="16" height="16" viewBox="0 0 16 16" fill="none" xmlns="http://www.w3.org/2000/svg">
<path d="M15.4367 9.26195C15.914 5.24396 15.2073 2.70729 13.9327 1.55996L13.9333 1.55929C11.876 -0.400045 4.92799 -0.690045 2.46666 1.64729C1.36133 2.79062 0.971992 4.46862 0.929325 6.54596C0.886659 8.62395 0.835992 12.5166 4.46333 13.5726H4.46666L4.46333 15.1853C4.46333 15.1853 4.43866 15.8386 4.85599 15.97C5.33333 16.1246 5.54932 15.8213 7.03399 14.048C9.51666 14.2633 11.4233 13.77 11.64 13.698C12.1413 13.53 14.978 13.1546 15.4367 9.26195ZM7.27866 12.9133C7.27866 12.9133 5.70733 14.8726 5.21866 15.3813C5.05866 15.5466 4.88333 15.5313 4.88599 15.2033C4.88599 14.988 4.89799 12.526 4.89799 12.526C1.82266 11.6446 2.00399 8.32996 2.03733 6.59596C2.07066 4.86129 2.38799 3.44062 3.32399 2.48396C5.48333 0.459289 11.5747 0.911955 13.1267 2.37062C15.024 4.05262 14.3487 8.80462 14.3527 8.96662C13.9627 12.216 11.664 12.422 11.2413 12.5626C11.0607 12.6226 9.38399 13.054 7.27866 12.9133Z" fill="#333333" fill-opacity="0.8"/>
<path d="M8.148 2.86469C7.89134 2.86469 7.89134 3.26469 8.148 3.26802C10.1393 3.28335 11.7793 4.67135 11.7973 7.21735C11.7973 7.48602 12.1907 7.48269 12.1873 7.21402H12.1867C12.1653 4.47069 10.3747 2.88002 8.148 2.86469Z" fill="#333333" fill-opacity="0.8"/>
<path d="M10.7673 6.7953C10.7613 7.06063 11.154 7.0733 11.1573 6.80463C11.19 5.29196 10.2573 4.04596 8.50467 3.91463C8.248 3.89596 8.22133 4.2993 8.47733 4.31796C9.99734 4.4333 10.798 5.47063 10.7673 6.7953Z" fill="#333333" fill-opacity="0.8"/>
<path d="M10.3473 8.51603C10.018 8.32536 9.68265 8.44403 9.54399 8.63136L9.25399 9.0067C9.10665 9.19736 8.83132 9.17203 8.83132 9.17203C6.82198 8.6407 6.28465 6.53803 6.28465 6.53803C6.28465 6.53803 6.25998 6.25336 6.44398 6.1007L6.80665 5.8007C6.98798 5.6567 7.10265 5.31003 6.91798 4.96936C6.42465 4.07803 6.09332 3.7707 5.92465 3.5347C5.74731 3.3127 5.48065 3.2627 5.20331 3.4127H5.19731C4.62065 3.75003 3.98931 4.38136 4.19131 5.03136C4.53598 5.7167 5.16931 7.90136 7.18798 9.55203C8.13665 10.3327 9.63799 11.1327 10.2753 11.3174L10.2813 11.3267C10.9093 11.536 11.52 10.88 11.846 10.286V10.2814C11.9907 9.99403 11.9427 9.72203 11.7313 9.54403C11.3567 9.1787 10.7913 8.77536 10.3473 8.51603Z" fill="#333333" fill-opacity="0.8"/>
<path d="M8.77934 5.40266C9.42 5.44 9.73066 5.77466 9.764 6.462C9.776 6.73067 10.166 6.712 10.154 6.44333C10.1113 5.546 9.64333 5.04599 8.80067 4.99933C8.544 4.98399 8.52 5.38733 8.77934 5.40266Z" fill="#333333" fill-opacity="0.8"/>
</svg>
