<svg width="23" height="24" viewBox="0 0 23 24" fill="none" xmlns="http://www.w3.org/2000/svg">
<path d="M22.155 13.893C22.871 7.86602 21.811 4.06102 19.899 2.34002L19.9 2.33902C16.814 -0.599975 6.39202 -1.03498 2.70002 2.47102C1.04202 4.18602 0.458018 6.70302 0.394018 9.81903C0.330018 12.936 0.254018 18.775 5.69502 20.359H5.70002L5.69502 22.778C5.69502 22.778 5.65802 23.758 6.28402 23.955C7.00002 24.187 7.32402 23.732 9.55102 21.072C13.275 21.395 16.135 20.655 16.46 20.547C17.212 20.295 21.467 19.732 22.155 13.893ZM9.91802 19.37C9.91802 19.37 7.56102 22.309 6.82802 23.072C6.58802 23.32 6.32502 23.297 6.32902 22.805C6.32902 22.482 6.34702 18.789 6.34702 18.789C1.73402 17.467 2.00602 12.495 2.05602 9.89402C2.10602 7.29202 2.58202 5.16102 3.98602 3.72602C7.22502 0.689025 16.362 1.36802 18.69 3.55602C21.536 6.07902 20.523 13.207 20.529 13.45C19.944 18.324 16.496 18.633 15.862 18.844C15.591 18.934 13.076 19.581 9.91802 19.37Z" fill="white" fill-opacity="0.9"/>
<path d="M11.222 4.29712C10.837 4.29712 10.837 4.89712 11.222 4.90212C14.209 4.92512 16.669 7.00712 16.696 10.8261C16.696 11.2291 17.286 11.2241 17.281 10.8211H17.28C17.248 6.70612 14.562 4.32012 11.222 4.29712Z" fill="white" fill-opacity="0.9"/>
<path d="M15.151 10.193C15.142 10.591 15.731 10.61 15.736 10.207C15.785 7.93804 14.386 6.06904 11.757 5.87204C11.372 5.84404 11.332 6.44904 11.716 6.47704C13.996 6.65004 15.197 8.20604 15.151 10.193Z" fill="white" fill-opacity="0.9"/>
<path d="M14.521 12.7741C14.027 12.4881 13.524 12.6661 13.316 12.9471L12.881 13.5101C12.66 13.7961 12.247 13.7581 12.247 13.7581C9.23297 12.9611 8.42697 9.8071 8.42697 9.8071C8.42697 9.8071 8.38997 9.3801 8.66597 9.1511L9.20997 8.7011C9.48197 8.4851 9.65397 7.9651 9.37697 7.4541C8.63697 6.1171 8.13997 5.6561 7.88697 5.3021C7.62097 4.9691 7.22097 4.8941 6.80497 5.1191H6.79597C5.93097 5.6251 4.98397 6.5721 5.28697 7.5471C5.80397 8.5751 6.75397 11.8521 9.78197 14.3281C11.205 15.4991 13.457 16.6991 14.413 16.9761L14.422 16.9901C15.364 17.3041 16.28 16.3201 16.769 15.4291V15.4221C16.986 14.9911 16.914 14.5831 16.597 14.3161C16.035 13.7681 15.187 13.1631 14.521 12.7741Z" fill="white" fill-opacity="0.9"/>
<path d="M12.169 8.10393C13.13 8.15993 13.596 8.66193 13.646 9.69294C13.664 10.0959 14.249 10.0679 14.231 9.66494C14.167 8.31893 13.465 7.56893 12.201 7.49893C11.816 7.47593 11.78 8.08093 12.169 8.10393Z" fill="white" fill-opacity="0.9"/>
</svg>
