<svg width="91" height="63" viewBox="0 0 91 63" fill="none" xmlns="http://www.w3.org/2000/svg">
<path d="M6.11494 41.8802C6.11494 41.5267 6.40313 41.2402 6.75862 41.2402H11.908C12.2635 41.2402 12.5517 41.5267 12.5517 41.8802V46.3602C12.5517 46.7137 12.2635 47.0002 11.908 47.0002H6.75862C6.40313 47.0002 6.11494 46.7137 6.11494 46.3602V41.8802Z" fill="url(#paint0_linear)"/>
<path d="M17.3793 31.64C17.3793 31.2865 17.0238 31 17.3793 31H52C54 31 56 33 56 35V59C56 61 54 63 52 63H18.023C17.6675 63 17.3793 62.7135 17.3793 62.36V31.64Z" fill="url(#paint1_linear)"/>
<path d="M12.5517 31.64C12.5517 31.2865 12.8399 31 13.1954 31H19.954C20.3095 31 20.5977 31.2865 20.5977 31.64V37.08C20.5977 37.4335 20.3095 37.72 19.954 37.72H13.1954C12.8399 37.72 12.5517 37.4335 12.5517 37.08V31.64Z" fill="url(#paint2_linear)"/>
<path d="M15.7701 56.9203C15.7701 56.5668 16.0583 56.2803 16.4138 56.2803H23.1724C23.5279 56.2803 23.8161 56.5668 23.8161 56.9203V62.3603C23.8161 62.7138 23.5279 63.0003 23.1724 63.0003H16.4138C16.0583 63.0003 15.7701 62.7138 15.7701 62.3603V56.9203Z" fill="url(#paint3_linear)"/>
<path d="M15.1264 40.2796C15.1264 39.9261 15.4146 39.6396 15.7701 39.6396H22.5287C22.8842 39.6396 23.1724 39.9261 23.1724 40.2796V45.7197C23.1724 46.0732 22.8842 46.3596 22.5287 46.3596H15.7701C15.4146 46.3596 15.1264 46.0732 15.1264 45.7197V40.2796Z" fill="url(#paint4_linear)"/>
<path d="M13.5172 48.6C13.5172 48.2465 13.8054 47.96 14.1609 47.96H20.9195C21.275 47.96 21.5632 48.2465 21.5632 48.6V54.04C21.5632 54.3935 21.275 54.68 20.9195 54.68H14.1609C13.8054 54.68 13.5172 54.3935 13.5172 54.04V48.6Z" fill="url(#paint5_linear)"/>
<path d="M3.86207 33.2396C3.86207 32.8861 4.15025 32.5996 4.50575 32.5996H9.65517C10.0107 32.5996 10.2989 32.8861 10.2989 33.2396V37.3996C10.2989 37.7531 10.0107 38.0396 9.65517 38.0396H4.50575C4.15025 38.0396 3.86207 37.7531 3.86207 37.3996V33.2396Z" fill="url(#paint6_linear)"/>
<path d="M4.18391 53.3998C4.18391 53.0463 4.47209 52.7598 4.82759 52.7598H11.5862C11.9417 52.7598 12.2299 53.0463 12.2299 53.3998V58.8398C12.2299 59.1933 11.9417 59.4798 11.5862 59.4798H4.82759C4.47209 59.4798 4.18391 59.1933 4.18391 58.8398V53.3998Z" fill="url(#paint7_linear)"/>
<path d="M0 41.2396C0 40.8861 0.288185 40.5996 0.643678 40.5996H2.89655C3.25205 40.5996 3.54023 40.8861 3.54023 41.2396V42.8396C3.54023 43.1931 3.25205 43.4796 2.89655 43.4796H0.643678C0.288185 43.4796 0 43.1931 0 42.8396V41.2396Z" fill="url(#paint8_linear)"/>
<path d="M1.6092 48.9203C1.6092 48.5668 1.89738 48.2803 2.25287 48.2803H4.50575C4.86124 48.2803 5.14943 48.5668 5.14943 48.9203V50.5203C5.14943 50.8738 4.86124 51.1603 4.50575 51.1603H2.25287C1.89738 51.1603 1.6092 50.8738 1.6092 50.5203V48.9203Z" fill="url(#paint9_linear)"/>
<path d="M0.965515 60.1205C0.965515 59.767 1.2537 59.4805 1.6092 59.4805H2.89655C3.25205 59.4805 3.54023 59.767 3.54023 60.1205V60.4405C3.54023 60.794 3.25205 61.0805 2.89655 61.0805H1.6092C1.2537 61.0805 0.965515 60.794 0.965515 60.4405V60.1205Z" fill="url(#paint10_linear)"/>
<path d="M10.2989 50.5199C10.2989 50.1664 10.587 49.8799 10.9425 49.8799H11.5862C11.9417 49.8799 12.2299 50.1664 12.2299 50.5199V50.8399C12.2299 51.1934 11.9417 51.4799 11.5862 51.4799H10.9425C10.587 51.4799 10.2989 51.1934 10.2989 50.8399V50.5199Z" fill="url(#paint11_linear)"/>
<path d="M0 35.1595C0 34.806 0.288185 34.5195 0.643678 34.5195H1.28736C1.64285 34.5195 1.93103 34.806 1.93103 35.1595V35.4795C1.93103 35.833 1.64285 36.1195 1.28736 36.1195H0.643678C0.288184 36.1195 0 35.833 0 35.4795V35.1595Z" fill="url(#paint12_linear)"/>
<path d="M12.2299 61.0804C12.2299 60.7269 12.5181 60.4404 12.8736 60.4404H13.5172C13.8727 60.4404 14.1609 60.7269 14.1609 61.0804V61.4004C14.1609 61.7539 13.8727 62.0404 13.5172 62.0404H12.8736C12.5181 62.0404 12.2299 61.7539 12.2299 61.4004V61.0804Z" fill="url(#paint13_linear)"/>
<path d="M90 52H32C31.448 52 31 52.4469 31 52.9999V57C31 57.553 31.448 58 32 58H89.9999C90.5529 58 90.9999 57.553 90.9999 57V53.0001C91 52.447 90.553 52 90 52ZM89 56.0001H33V54H89.0001V56.0001H89Z" fill="#222222"/>
<path d="M89.97 18.757L86.97 6.75703C86.858 6.31301 86.459 6 86.0001 6H36C35.541 6 35.141 6.31301 35.0301 6.75703L32.0301 18.757C31.9551 19.056 32.023 19.372 32.2121 19.6151C32.4011 19.8581 32.6921 20 33 20H89.0001C89.308 20 89.5981 19.858 89.788 19.6151C89.978 19.3721 90.045 19.056 89.97 18.757ZM34.281 18L36.781 8.00004H85.219L87.719 18H34.281Z" fill="#222222"/>
<path d="M64 19V21.0001C64 22.6541 62.654 24.0001 61 24.0001C59.346 24.0001 58 22.6541 58 21.0001V19H55.9999V21.0001C55.9999 23.757 58.2429 26.0001 61 26.0001C63.757 26.0001 66 23.7571 66 21.0001V19H64Z" fill="#222222"/>
<path d="M56 19V21.0001C56 22.6541 54.654 24.0001 53 24.0001C51.346 24.0001 50 22.6541 50 21.0001V19H48V21.0001C48 23.757 50.2429 26.0001 53 26.0001C55.757 26.0001 58 23.7571 58 21.0001V19H56Z" fill="#222222"/>
<path d="M48.0001 19V21.0001C48.0001 22.6541 46.6541 24.0001 45.0001 24.0001C43.3461 24.0001 42.0001 22.6541 42.0001 21.0001V19H40V21.0001C40 23.757 42.243 26.0001 45.0001 26.0001C47.7571 26.0001 50.0001 23.7571 50.0001 21.0001V19H48.0001Z" fill="#222222"/>
<path d="M40 19V21.0001C40 22.6541 38.654 24.0001 37 24.0001C35.346 24.0001 34 22.6541 34 21.0001V19H32V21.0001C32 23.757 34.2429 26.0001 37 26.0001C39.757 26.0001 42 23.7571 42 21.0001V19H40Z" fill="#222222"/>
<path d="M88 19V21.0001C88 22.6541 86.654 24.0001 85 24.0001C83.346 24.0001 82 22.6541 82 21.0001V19H79.9999V21.0001C79.9999 23.757 82.2429 26.0001 85 26.0001C87.7569 26.0001 90 23.7571 90 21.0001V19H88Z" fill="#222222"/>
<path d="M80 19V21.0001C80 22.6541 78.654 24.0001 77 24.0001C75.346 24.0001 74 22.6541 74 21.0001V19H71.9999V21.0001C71.9999 23.757 74.2429 26.0001 77 26.0001C79.7569 26.0001 82 23.7571 82 21.0001V19H80Z" fill="#222222"/>
<path d="M72 19V21.0001C72 22.6541 70.654 24.0001 69 24.0001C67.3461 24.0001 66 22.6541 66 21.0001V19H64V21.0001C64 23.757 66.243 26.0001 69 26.0001C71.757 26.0001 74.0001 23.7571 74.0001 21.0001V19H72Z" fill="#222222"/>
<path d="M58 7H55.9999V19H58V7Z" fill="#222222"/>
<path d="M66 7H64V19H66V7Z" fill="#222222"/>
<path d="M49.0024 6.9209L48.0031 18.9181L49.996 19.0841L50.9953 7.08689L49.0024 6.9209Z" fill="#222222"/>
<path d="M42.0162 6.83496L40.0136 18.836L41.9864 19.1652L43.9891 7.16417L42.0162 6.83496Z" fill="#222222"/>
<path d="M72.9914 6.91797L70.9995 7.08388L71.9988 19.0811L73.9907 18.9152L72.9914 6.91797Z" fill="#222222"/>
<path d="M79.9875 6.83496L78.0147 7.16377L80.0148 19.1644L81.9876 18.8355L79.9875 6.83496Z" fill="#222222"/>
<path d="M86 2H36C35.4481 2 35.0001 2.44801 35.0001 2.99996V6.99992H37V3.99992H85V6.99992H87V2.99996C87 2.44801 86.553 2 86 2Z" fill="#222222"/>
<path d="M37 25H34.9999V52H37V25Z" fill="#222222"/>
<path d="M87 25H85V53H87V25Z" fill="#222222"/>
<path d="M68 30H40C39.448 30 39 30.447 39 31V46.9999C39 47.5529 39.448 47.9999 40 47.9999H68C68.553 47.9999 68.9999 47.5529 68.9999 46.9999V31C69 30.447 68.553 30 68 30ZM67 46H41V32H67V46Z" fill="#222222"/>
<path d="M82 30H72C71.447 30 71.0001 30.447 71.0001 31V52.9999C71.0001 53.5529 71.447 53.9999 72 53.9999H82C82.553 53.9999 82.9999 53.5529 82.9999 52.9999V31C82.9999 30.447 82.553 30 82 30ZM81 52H73V32H81V52Z" fill="#222222"/>
<defs>
<linearGradient id="paint0_linear" x1="56" y1="63.8002" x2="24.1379" y2="63.962" gradientUnits="userSpaceOnUse">
<stop stop-color="#FF9F18"/>
<stop offset="1" stop-color="#FDB813"/>
</linearGradient>
<linearGradient id="paint1_linear" x1="56" y1="63.8" x2="24.1379" y2="63.9618" gradientUnits="userSpaceOnUse">
<stop stop-color="#FF9F18"/>
<stop offset="1" stop-color="#FDB813"/>
</linearGradient>
<linearGradient id="paint2_linear" x1="56" y1="63.8" x2="24.1379" y2="63.9618" gradientUnits="userSpaceOnUse">
<stop stop-color="#FF9F18"/>
<stop offset="1" stop-color="#FDB813"/>
</linearGradient>
<linearGradient id="paint3_linear" x1="56" y1="63.8003" x2="24.1379" y2="63.9621" gradientUnits="userSpaceOnUse">
<stop stop-color="#FF9F18"/>
<stop offset="1" stop-color="#FDB813"/>
</linearGradient>
<linearGradient id="paint4_linear" x1="56" y1="63.7997" x2="24.1379" y2="63.9615" gradientUnits="userSpaceOnUse">
<stop stop-color="#FF9F18"/>
<stop offset="1" stop-color="#FDB813"/>
</linearGradient>
<linearGradient id="paint5_linear" x1="56" y1="63.8" x2="24.1379" y2="63.9618" gradientUnits="userSpaceOnUse">
<stop stop-color="#FF9F18"/>
<stop offset="1" stop-color="#FDB813"/>
</linearGradient>
<linearGradient id="paint6_linear" x1="56" y1="63.7996" x2="24.1379" y2="63.9614" gradientUnits="userSpaceOnUse">
<stop stop-color="#FF9F18"/>
<stop offset="1" stop-color="#FDB813"/>
</linearGradient>
<linearGradient id="paint7_linear" x1="56" y1="63.7998" x2="24.1379" y2="63.9616" gradientUnits="userSpaceOnUse">
<stop stop-color="#FF9F18"/>
<stop offset="1" stop-color="#FDB813"/>
</linearGradient>
<linearGradient id="paint8_linear" x1="56" y1="63.7996" x2="24.1379" y2="63.9614" gradientUnits="userSpaceOnUse">
<stop stop-color="#FF9F18"/>
<stop offset="1" stop-color="#FDB813"/>
</linearGradient>
<linearGradient id="paint9_linear" x1="56" y1="63.8003" x2="24.1379" y2="63.9621" gradientUnits="userSpaceOnUse">
<stop stop-color="#FF9F18"/>
<stop offset="1" stop-color="#FDB813"/>
</linearGradient>
<linearGradient id="paint10_linear" x1="56" y1="63.8005" x2="24.1379" y2="63.9623" gradientUnits="userSpaceOnUse">
<stop stop-color="#FF9F18"/>
<stop offset="1" stop-color="#FDB813"/>
</linearGradient>
<linearGradient id="paint11_linear" x1="56" y1="63.7999" x2="24.1379" y2="63.9617" gradientUnits="userSpaceOnUse">
<stop stop-color="#FF9F18"/>
<stop offset="1" stop-color="#FDB813"/>
</linearGradient>
<linearGradient id="paint12_linear" x1="56" y1="63.7995" x2="24.1379" y2="63.9613" gradientUnits="userSpaceOnUse">
<stop stop-color="#FF9F18"/>
<stop offset="1" stop-color="#FDB813"/>
</linearGradient>
<linearGradient id="paint13_linear" x1="56" y1="63.8004" x2="24.1379" y2="63.9622" gradientUnits="userSpaceOnUse">
<stop stop-color="#FF9F18"/>
<stop offset="1" stop-color="#FDB813"/>
</linearGradient>
</defs>
</svg>
